M48
; DRILL file {KiCad 9.0.7-9.0.7~ubuntu22.04.1} date 2026-01-26T15:11:16+0530
; FORMAT={-:-/ absolute / metric / decimal}
; #@! TF.CreationDate,2026-01-26T15:11:16+05:30
; #@! TF.GenerationSoftware,Kicad,Pcbnew,9.0.7-9.0.7~ubuntu22.04.1
; #@! TF.FileFunction,Plated,1,2,PTH
FMAT,2
METRIC
; #@! TA.AperFunction,Plated,PTH,ViaDrill
T1C0.350
; #@! TA.AperFunction,Plated,PTH,ComponentDrill
T2C0.500
; #@! TA.AperFunction,Plated,PTH,ComponentDrill
T3C1.000
; #@! TA.AperFunction,Plated,PTH,ComponentDrill
T4C1.100
; #@! TA.AperFunction,Plated,PTH,ComponentDrill
T5C3.200
%
G90
G05
T1
X188.5Y-87.25
X189.5Y-73.75
X190.5Y-80.5
X191.75Y-76.75
X194.25Y-87.75
X195.7Y-64.8
X195.8Y-92.8
X196.233Y-78.483
X196.3Y-82.9
X197.25Y-72.75
X197.25Y-81.5
X198.0Y-95.0
X199.75Y-85.75
X199.75Y-92.75
X200.0Y-71.75
X202.0Y-99.5
X203.5Y-83.25
X204.5Y-95.5
X204.75Y-86.5
X206.0Y-81.067
X206.5Y-76.5
X207.25Y-75.5
X207.4Y-93.8
X207.5Y-67.5
X208.25Y-63.25
X208.25Y-95.5
X208.5Y-72.25
X208.5Y-81.25
X208.5Y-90.25
X209.0Y-94.0
X209.5Y-95.5
X212.0Y-99.5
X223.5Y-91.0
T2
X185.0Y-62.5
X185.0Y-97.0
X185.703Y-60.803
X185.703Y-64.197
X185.703Y-95.303
X185.703Y-98.697
X187.4Y-60.1
X187.4Y-64.9
X187.4Y-94.6
X187.4Y-99.4
X189.097Y-60.803
X189.097Y-64.197
X189.097Y-95.303
X189.097Y-98.697
X189.8Y-62.5
X189.8Y-97.0
X225.2Y-79.0
X225.903Y-77.303
X225.903Y-80.697
X227.6Y-76.6
X227.6Y-81.4
X229.297Y-77.303
X229.297Y-80.697
X230.0Y-79.0
T3
X193.75Y-68.75
X196.29Y-68.75
X198.83Y-68.75
X201.37Y-68.75
T4
X214.55Y-81.383
X214.55Y-85.883
X214.65Y-90.5
X214.65Y-95.0
X214.75Y-72.267
X214.75Y-76.767
X214.8Y-63.15
X214.8Y-67.65
X221.05Y-81.383
X221.05Y-85.883
X221.15Y-90.5
X221.15Y-95.0
X221.25Y-72.267
X221.25Y-76.767
X221.3Y-63.15
X221.3Y-67.65
T5
X187.4Y-62.5
X187.4Y-97.0
X227.6Y-79.0
M30
