%TF.GenerationSoftware,KiCad,Pcbnew,9.0.7-9.0.7~ubuntu22.04.1*%
%TF.CreationDate,2026-01-26T15:11:08+05:30*%
%TF.ProjectId,ATTINY_85_OSCILLOSCOPE,41545449-4e59-45f3-9835-5f4f5343494c,rev?*%
%TF.SameCoordinates,Original*%
%TF.FileFunction,Copper,L2,Bot*%
%TF.FilePolarity,Positive*%
%FSLAX46Y46*%
G04 Gerber Fmt 4.6, Leading zero omitted, Abs format (unit mm)*
G04 Created by KiCad (PCBNEW 9.0.7-9.0.7~ubuntu22.04.1) date 2026-01-26 15:11:08*
%MOMM*%
%LPD*%
G01*
G04 APERTURE LIST*
%TA.AperFunction,ComponentPad*%
%ADD10R,1.700000X1.700000*%
%TD*%
%TA.AperFunction,ComponentPad*%
%ADD11C,1.700000*%
%TD*%
%TA.AperFunction,ComponentPad*%
%ADD12C,2.000000*%
%TD*%
%TA.AperFunction,ComponentPad*%
%ADD13C,0.800000*%
%TD*%
%TA.AperFunction,ComponentPad*%
%ADD14C,6.400000*%
%TD*%
%TA.AperFunction,ViaPad*%
%ADD15C,0.800000*%
%TD*%
%TA.AperFunction,Conductor*%
%ADD16C,0.400000*%
%TD*%
%TA.AperFunction,Conductor*%
%ADD17C,1.000000*%
%TD*%
%TA.AperFunction,Conductor*%
%ADD18C,0.500000*%
%TD*%
G04 APERTURE END LIST*
D10*
%TO.P,J3,1,Pin_1*%
%TO.N,GND*%
X201370000Y-68750000D03*
D11*
%TO.P,J3,2,Pin_2*%
%TO.N,/3V3*%
X198830000Y-68750000D03*
%TO.P,J3,3,Pin_3*%
%TO.N,SCL*%
X196290000Y-68750000D03*
%TO.P,J3,4,Pin_4*%
%TO.N,SDA*%
X193750000Y-68750000D03*
%TD*%
D12*
%TO.P,HOLD,1,A*%
%TO.N,Net-(SW1-A)*%
X214800000Y-63150000D03*
X221300000Y-63150000D03*
%TO.P,HOLD,2,B*%
%TO.N,BTN*%
X214800000Y-67650000D03*
X221300000Y-67650000D03*
%TD*%
D13*
%TO.P,H3,1*%
%TO.N,N/C*%
X185000000Y-62500000D03*
X185702944Y-60802944D03*
X185702944Y-64197056D03*
X187400000Y-60100000D03*
D14*
X187400000Y-62500000D03*
D13*
X187400000Y-64900000D03*
X189097056Y-60802944D03*
X189097056Y-64197056D03*
X189800000Y-62500000D03*
%TD*%
D12*
%TO.P,SELECT,1,A*%
%TO.N,Net-(SW4-A)*%
X214650000Y-90500000D03*
X221150000Y-90500000D03*
%TO.P,SELECT,2,B*%
%TO.N,BTN*%
X214650000Y-95000000D03*
X221150000Y-95000000D03*
%TD*%
%TO.P,UP,1,A*%
%TO.N,Net-(SW2-A)*%
X214750000Y-72266667D03*
X221250000Y-72266667D03*
%TO.P,UP,2,B*%
%TO.N,BTN*%
X214750000Y-76766667D03*
X221250000Y-76766667D03*
%TD*%
%TO.P,DOWN,1,A*%
%TO.N,Net-(SW3-A)*%
X214550000Y-81383333D03*
X221050000Y-81383333D03*
%TO.P,DOWN,2,B*%
%TO.N,BTN*%
X214550000Y-85883333D03*
X221050000Y-85883333D03*
%TD*%
D13*
%TO.P,H1,1*%
%TO.N,N/C*%
X225200000Y-79000000D03*
X225902944Y-77302944D03*
X225902944Y-80697056D03*
X227600000Y-76600000D03*
D14*
X227600000Y-79000000D03*
D13*
X227600000Y-81400000D03*
X229297056Y-77302944D03*
X229297056Y-80697056D03*
X230000000Y-79000000D03*
%TD*%
%TO.P,H2,1*%
%TO.N,N/C*%
X185000000Y-97000000D03*
X185702944Y-95302944D03*
X185702944Y-98697056D03*
X187400000Y-94600000D03*
D14*
X187400000Y-97000000D03*
D13*
X187400000Y-99400000D03*
X189097056Y-95302944D03*
X189097056Y-98697056D03*
X189800000Y-97000000D03*
%TD*%
D15*
%TO.N,GND*%
X196300000Y-82900000D03*
X195800000Y-92800000D03*
X195700000Y-64800000D03*
X207400000Y-93800000D03*
X207250000Y-75500000D03*
X197250000Y-72750000D03*
X207500000Y-67500000D03*
%TO.N,/5V5*%
X209000000Y-94000000D03*
X223500000Y-91000000D03*
%TO.N,/3V3*%
X199750000Y-85750000D03*
X197250000Y-81500000D03*
X190500000Y-80500000D03*
%TO.N,RST*%
X206500000Y-76500000D03*
X206000000Y-81067500D03*
%TO.N,IN*%
X196232501Y-78482501D03*
X200000000Y-71750000D03*
%TO.N,GND*%
X191750000Y-76750000D03*
X203500000Y-83250000D03*
X194250000Y-87750000D03*
X188500000Y-87250000D03*
X199750000Y-92750000D03*
X198000000Y-95000000D03*
X208250000Y-95500000D03*
X212000000Y-99500000D03*
X202000000Y-99500000D03*
X209500000Y-95500000D03*
X204500000Y-95500000D03*
X208500000Y-90250000D03*
X208500000Y-81250000D03*
X208500000Y-72250000D03*
X208250000Y-63250000D03*
%TO.N,Net-(C1-Pad1)*%
X189500000Y-73750000D03*
X204750000Y-86500000D03*
%TD*%
D16*
%TO.N,GND*%
X196300000Y-82900000D02*
X196300000Y-85700000D01*
X196300000Y-85700000D02*
X194250000Y-87750000D01*
D17*
%TO.N,/5V5*%
X209701000Y-93299000D02*
X209000000Y-94000000D01*
X221201000Y-93299000D02*
X209701000Y-93299000D01*
X223500000Y-91000000D02*
X221201000Y-93299000D01*
D18*
%TO.N,/3V3*%
X197250000Y-83250000D02*
X199750000Y-85750000D01*
X197250000Y-81500000D02*
X197250000Y-83250000D01*
X191500000Y-81500000D02*
X197250000Y-81500000D01*
X190500000Y-80500000D02*
X191500000Y-81500000D01*
X190500000Y-80500000D02*
X190500000Y-76750000D01*
X190500000Y-76750000D02*
X198500000Y-68750000D01*
X198500000Y-68750000D02*
X198830000Y-68750000D01*
D16*
%TO.N,RST*%
X206500000Y-76500000D02*
X206500000Y-80567500D01*
X206500000Y-80567500D02*
X206000000Y-81067500D01*
%TO.N,IN*%
X200000000Y-76250000D02*
X199250000Y-77000000D01*
X200000000Y-71750000D02*
X200000000Y-76250000D01*
X196232501Y-77267499D02*
X196232501Y-78482501D01*
X196500000Y-77000000D02*
X196232501Y-77267499D01*
X199250000Y-77000000D02*
X196500000Y-77000000D01*
%TO.N,Net-(C1-Pad1)*%
X204750000Y-86500000D02*
X204750000Y-87750000D01*
X204750000Y-87750000D02*
X203750000Y-88750000D01*
X203750000Y-88750000D02*
X193000000Y-88750000D01*
X193000000Y-88750000D02*
X189500000Y-85250000D01*
X189500000Y-85250000D02*
X189500000Y-73750000D01*
%TD*%
%TA.AperFunction,Conductor*%
%TO.N,GND*%
G36*
X226502702Y-58500617D02*
G01*
X226886771Y-58517386D01*
X226897506Y-58518326D01*
X227275971Y-58568152D01*
X227286597Y-58570025D01*
X227659284Y-58652648D01*
X227669710Y-58655442D01*
X228033765Y-58770227D01*
X228043911Y-58773920D01*
X228396578Y-58920000D01*
X228406369Y-58924566D01*
X228646365Y-59049500D01*
X228744942Y-59100816D01*
X228754310Y-59106224D01*
X229076244Y-59311318D01*
X229085105Y-59317523D01*
X229387930Y-59549889D01*
X229396217Y-59556843D01*
X229677635Y-59814715D01*
X229685284Y-59822364D01*
X229943156Y-60103782D01*
X229950110Y-60112069D01*
X230182476Y-60414894D01*
X230188681Y-60423755D01*
X230393775Y-60745689D01*
X230399183Y-60755057D01*
X230575430Y-61093623D01*
X230580002Y-61103427D01*
X230726075Y-61456078D01*
X230729775Y-61466244D01*
X230844554Y-61830278D01*
X230847354Y-61840727D01*
X230929971Y-62213389D01*
X230931849Y-62224042D01*
X230981671Y-62602473D01*
X230982614Y-62613249D01*
X230999382Y-62997297D01*
X230999500Y-63002706D01*
X230999500Y-77567138D01*
X230979815Y-77634177D01*
X230927011Y-77679932D01*
X230857853Y-77689876D01*
X230794297Y-77660851D01*
X230760939Y-77614591D01*
X230722977Y-77522942D01*
X230714702Y-77507461D01*
X230563168Y-77223960D01*
X230563167Y-77223958D01*
X230563162Y-77223949D01*
X230374810Y-76942061D01*
X230159735Y-76679991D01*
X230159734Y-76679990D01*
X230159730Y-76679985D01*
X229920014Y-76440269D01*
X229657944Y-76225194D01*
X229657943Y-76225193D01*
X229657939Y-76225190D01*
X229376051Y-76036838D01*
X229376046Y-76036835D01*
X229376039Y-76036831D01*
X229077065Y-75877026D01*
X229077060Y-75877024D01*
X229070964Y-75874499D01*
X228922104Y-75812839D01*
X228763841Y-75747284D01*
X228573382Y-75689509D01*
X228439414Y-75648871D01*
X228439411Y-75648870D01*
X228439410Y-75648870D01*
X228106901Y-75582729D01*
X227869199Y-75559318D01*
X227769512Y-75549500D01*
X227430488Y-75549500D01*
X227339738Y-75558437D01*
X227093098Y-75582729D01*
X226760589Y-75648870D01*
X226436158Y-75747284D01*
X226122939Y-75877024D01*
X226122934Y-75877026D01*
X225823960Y-76036831D01*
X225823942Y-76036842D01*
X225542069Y-76225184D01*
X225542055Y-76225194D01*
X225279985Y-76440269D01*
X225040269Y-76679985D01*
X224825194Y-76942055D01*
X224825184Y-76942069D01*
X224636842Y-77223942D01*
X224636831Y-77223960D01*
X224477026Y-77522934D01*
X224477024Y-77522939D01*
X224347284Y-77836158D01*
X224248870Y-78160589D01*
X224182729Y-78493098D01*
X224149500Y-78830491D01*
X224149500Y-79169508D01*
X224182729Y-79506901D01*
X224248870Y-79839410D01*
X224347284Y-80163841D01*
X224477024Y-80477060D01*
X224477026Y-80477065D01*
X224636831Y-80776039D01*
X224636842Y-80776057D01*
X224825184Y-81057930D01*
X224825194Y-81057944D01*
X225040269Y-81320014D01*
X225279985Y-81559730D01*
X225279990Y-81559734D01*
X225279991Y-81559735D01*
X225542061Y-81774810D01*
X225823949Y-81963162D01*
X225823958Y-81963167D01*
X225823960Y-81963168D01*
X226122934Y-82122973D01*
X226122936Y-82122973D01*
X226122942Y-82122977D01*
X226436160Y-82252716D01*
X226760586Y-82351129D01*
X227093096Y-82417270D01*
X227430488Y-82450500D01*
X227430491Y-82450500D01*
X227769509Y-82450500D01*
X227769512Y-82450500D01*
X228106904Y-82417270D01*
X228439414Y-82351129D01*
X228763840Y-82252716D01*
X229077058Y-82122977D01*
X229376051Y-81963162D01*
X229657939Y-81774810D01*
X229920009Y-81559735D01*
X230159735Y-81320009D01*
X230374810Y-81057939D01*
X230563162Y-80776051D01*
X230722977Y-80477058D01*
X230760939Y-80385408D01*
X230804780Y-80331005D01*
X230871074Y-80308940D01*
X230938773Y-80326219D01*
X230986384Y-80377356D01*
X230999500Y-80432861D01*
X230999500Y-95997293D01*
X230999382Y-96002702D01*
X230982614Y-96386750D01*
X230981671Y-96397526D01*
X230931849Y-96775957D01*
X230929971Y-96786610D01*
X230847354Y-97159272D01*
X230844554Y-97169721D01*
X230729775Y-97533755D01*
X230726075Y-97543921D01*
X230580002Y-97896572D01*
X230575430Y-97906376D01*
X230399183Y-98244942D01*
X230393775Y-98254310D01*
X230188681Y-98576244D01*
X230182476Y-98585105D01*
X229950110Y-98887930D01*
X229943156Y-98896217D01*
X229685284Y-99177635D01*
X229677635Y-99185284D01*
X229396217Y-99443156D01*
X229387930Y-99450110D01*
X229085105Y-99682476D01*
X229076244Y-99688681D01*
X228754310Y-99893775D01*
X228744942Y-99899183D01*
X228406376Y-100075430D01*
X228396572Y-100080002D01*
X228043921Y-100226075D01*
X228033755Y-100229775D01*
X227669721Y-100344554D01*
X227659272Y-100347354D01*
X227286610Y-100429971D01*
X227275957Y-100431849D01*
X226897526Y-100481671D01*
X226886750Y-100482614D01*
X226502703Y-100499382D01*
X226497294Y-100499500D01*
X188586242Y-100499500D01*
X188519203Y-100479815D01*
X188473448Y-100427011D01*
X188463504Y-100357853D01*
X188492529Y-100294297D01*
X188550245Y-100256839D01*
X188563840Y-100252716D01*
X188877058Y-100122977D01*
X189176051Y-99963162D01*
X189457939Y-99774810D01*
X189720009Y-99559735D01*
X189959735Y-99320009D01*
X190174810Y-99057939D01*
X190363162Y-98776051D01*
X190522977Y-98477058D01*
X190652716Y-98163840D01*
X190751129Y-97839414D01*
X190817270Y-97506904D01*
X190850500Y-97169512D01*
X190850500Y-96830488D01*
X190817270Y-96493096D01*
X190751129Y-96160586D01*
X190652716Y-95836160D01*
X190522977Y-95522942D01*
X190500037Y-95480025D01*
X190363168Y-95223960D01*
X190363167Y-95223958D01*
X190363162Y-95223949D01*
X190174810Y-94942061D01*
X189959735Y-94679991D01*
X189959734Y-94679990D01*
X189959730Y-94679985D01*
X189720014Y-94440269D01*
X189457944Y-94225194D01*
X189457943Y-94225193D01*
X189457939Y-94225190D01*
X189231547Y-94073919D01*
X208249499Y-94073919D01*
X208278340Y-94218906D01*
X208278342Y-94218912D01*
X208334916Y-94355494D01*
X208417048Y-94478416D01*
X208417052Y-94478420D01*
X208417052Y-94478421D01*
X208521578Y-94582947D01*
X208521581Y-94582949D01*
X208521584Y-94582952D01*
X208644506Y-94665084D01*
X208781088Y-94721658D01*
X208781092Y-94721658D01*
X208781093Y-94721659D01*
X208926080Y-94750500D01*
X208926083Y-94750500D01*
X209073919Y-94750500D01*
X209171461Y-94731096D01*
X209218912Y-94721658D01*
X209355494Y-94665084D01*
X209478416Y-94582952D01*
X209975549Y-94085819D01*
X210036872Y-94052334D01*
X210063230Y-94049500D01*
X213551512Y-94049500D01*
X213618551Y-94069185D01*
X213664306Y-94121989D01*
X213674250Y-94191147D01*
X213651830Y-94246384D01*
X213619872Y-94290370D01*
X213580476Y-94344594D01*
X213491117Y-94519970D01*
X213430290Y-94707173D01*
X213399500Y-94901577D01*
X213399500Y-95098422D01*
X213430290Y-95292826D01*
X213491117Y-95480029D01*
X213580476Y-95655405D01*
X213696172Y-95814646D01*
X213835354Y-95953828D01*
X213994595Y-96069524D01*
X214077455Y-96111743D01*
X214169970Y-96158882D01*
X214169972Y-96158882D01*
X214169975Y-96158884D01*
X214270317Y-96191487D01*
X214357173Y-96219709D01*
X214551578Y-96250500D01*
X214551583Y-96250500D01*
X214748422Y-96250500D01*
X214942826Y-96219709D01*
X215130025Y-96158884D01*
X215305405Y-96069524D01*
X215464646Y-95953828D01*
X215603828Y-95814646D01*
X215719524Y-95655405D01*
X215808884Y-95480025D01*
X215869709Y-95292826D01*
X215880619Y-95223942D01*
X215900500Y-95098422D01*
X215900500Y-94901577D01*
X215869709Y-94707173D01*
X215841487Y-94620317D01*
X215808884Y-94519975D01*
X215808882Y-94519972D01*
X215808882Y-94519970D01*
X215761743Y-94427455D01*
X215719524Y-94344595D01*
X215648169Y-94246384D01*
X215624690Y-94180580D01*
X215640515Y-94112526D01*
X215690621Y-94063831D01*
X215748488Y-94049500D01*
X220051512Y-94049500D01*
X220118551Y-94069185D01*
X220164306Y-94121989D01*
X220174250Y-94191147D01*
X220151830Y-94246384D01*
X220119872Y-94290370D01*
X220080476Y-94344594D01*
X219991117Y-94519970D01*
X219930290Y-94707173D01*
X219899500Y-94901577D01*
X219899500Y-95098422D01*
X219930290Y-95292826D01*
X219991117Y-95480029D01*
X220080476Y-95655405D01*
X220196172Y-95814646D01*
X220335354Y-95953828D01*
X220494595Y-96069524D01*
X220577455Y-96111743D01*
X220669970Y-96158882D01*
X220669972Y-96158882D01*
X220669975Y-96158884D01*
X220770317Y-96191487D01*
X220857173Y-96219709D01*
X221051578Y-96250500D01*
X221051583Y-96250500D01*
X221248422Y-96250500D01*
X221442826Y-96219709D01*
X221630025Y-96158884D01*
X221805405Y-96069524D01*
X221964646Y-95953828D01*
X222103828Y-95814646D01*
X222219524Y-95655405D01*
X222308884Y-95480025D01*
X222369709Y-95292826D01*
X222380619Y-95223942D01*
X222400500Y-95098422D01*
X222400500Y-94901577D01*
X222369709Y-94707173D01*
X222341487Y-94620317D01*
X222308884Y-94519975D01*
X222308882Y-94519972D01*
X222308882Y-94519970D01*
X222261743Y-94427455D01*
X222219524Y-94344595D01*
X222103828Y-94185354D01*
X221964646Y-94046172D01*
X221821784Y-93942376D01*
X221779119Y-93887045D01*
X221773140Y-93817432D01*
X221805746Y-93755637D01*
X221806912Y-93754454D01*
X224082952Y-91478416D01*
X224165084Y-91355494D01*
X224221658Y-91218912D01*
X224250500Y-91073917D01*
X224250500Y-90926083D01*
X224250500Y-90926080D01*
X224221659Y-90781093D01*
X224221658Y-90781092D01*
X224221658Y-90781088D01*
X224165084Y-90644506D01*
X224082952Y-90521584D01*
X224082947Y-90521579D01*
X224082947Y-90521578D01*
X223978421Y-90417052D01*
X223978417Y-90417049D01*
X223978416Y-90417048D01*
X223855494Y-90334916D01*
X223855492Y-90334915D01*
X223855490Y-90334914D01*
X223718912Y-90278342D01*
X223718906Y-90278340D01*
X223573919Y-90249500D01*
X223573917Y-90249500D01*
X223426083Y-90249500D01*
X223426081Y-90249500D01*
X223281093Y-90278340D01*
X223281087Y-90278342D01*
X223144509Y-90334914D01*
X223144502Y-90334918D01*
X223082418Y-90376400D01*
X223021584Y-90417048D01*
X223021582Y-90417049D01*
X223021579Y-90417052D01*
X223021578Y-90417052D01*
X222587604Y-90851026D01*
X222526281Y-90884511D01*
X222456589Y-90879527D01*
X222400656Y-90837655D01*
X222376239Y-90772191D01*
X222377449Y-90743952D01*
X222393200Y-90644509D01*
X222400500Y-90598421D01*
X222400500Y-90401577D01*
X222369709Y-90207173D01*
X222308882Y-90019970D01*
X222219523Y-89844594D01*
X222103828Y-89685354D01*
X221964646Y-89546172D01*
X221805405Y-89430476D01*
X221630029Y-89341117D01*
X221442826Y-89280290D01*
X221248422Y-89249500D01*
X221248417Y-89249500D01*
X221051583Y-89249500D01*
X221051578Y-89249500D01*
X220857173Y-89280290D01*
X220669970Y-89341117D01*
X220494594Y-89430476D01*
X220403741Y-89496485D01*
X220335354Y-89546172D01*
X220335352Y-89546174D01*
X220335351Y-89546174D01*
X220196174Y-89685351D01*
X220196174Y-89685352D01*
X220196172Y-89685354D01*
X220146485Y-89753741D01*
X220080476Y-89844594D01*
X219991117Y-90019970D01*
X219930290Y-90207173D01*
X219899500Y-90401577D01*
X219899500Y-90598422D01*
X219930290Y-90792826D01*
X219991117Y-90980029D01*
X220038956Y-91073917D01*
X220080476Y-91155405D01*
X220196172Y-91314646D01*
X220335354Y-91453828D01*
X220494595Y-91569524D01*
X220577455Y-91611743D01*
X220669970Y-91658882D01*
X220669972Y-91658882D01*
X220669975Y-91658884D01*
X220770317Y-91691487D01*
X220857173Y-91719709D01*
X221051578Y-91750500D01*
X221051583Y-91750500D01*
X221248421Y-91750500D01*
X221315506Y-91739874D01*
X221393948Y-91727450D01*
X221463240Y-91736404D01*
X221516692Y-91781400D01*
X221537332Y-91848151D01*
X221518608Y-91915465D01*
X221501026Y-91937604D01*
X220926451Y-92512181D01*
X220865128Y-92545666D01*
X220838770Y-92548500D01*
X209627076Y-92548500D01*
X209598242Y-92554234D01*
X209598243Y-92554235D01*
X209482093Y-92577339D01*
X209482083Y-92577342D01*
X209402081Y-92610479D01*
X209402082Y-92610480D01*
X209345502Y-92633917D01*
X209296269Y-92666813D01*
X209222588Y-92716044D01*
X209222580Y-92716050D01*
X208417052Y-93521578D01*
X208417052Y-93521579D01*
X208417049Y-93521582D01*
X208417048Y-93521584D01*
X208398396Y-93549500D01*
X208334918Y-93644502D01*
X208334914Y-93644509D01*
X208278342Y-93781087D01*
X208278340Y-93781093D01*
X208249500Y-93926080D01*
X208249500Y-93926083D01*
X208249500Y-94073917D01*
X208249500Y-94073919D01*
X208249499Y-94073919D01*
X189231547Y-94073919D01*
X189176051Y-94036838D01*
X189162039Y-94029348D01*
X188877065Y-93877026D01*
X188877060Y-93877024D01*
X188863895Y-93871571D01*
X188785319Y-93839023D01*
X188563841Y-93747284D01*
X188373382Y-93689509D01*
X188239414Y-93648871D01*
X188239411Y-93648870D01*
X188239410Y-93648870D01*
X187906901Y-93582729D01*
X187669199Y-93559318D01*
X187569512Y-93549500D01*
X187230488Y-93549500D01*
X187139738Y-93558437D01*
X186893098Y-93582729D01*
X186560589Y-93648870D01*
X186236158Y-93747284D01*
X185922939Y-93877024D01*
X185922934Y-93877026D01*
X185623960Y-94036831D01*
X185623942Y-94036842D01*
X185342069Y-94225184D01*
X185342055Y-94225194D01*
X185079985Y-94440269D01*
X184840269Y-94679985D01*
X184625194Y-94942055D01*
X184625184Y-94942069D01*
X184436842Y-95223942D01*
X184436831Y-95223960D01*
X184277026Y-95522934D01*
X184277024Y-95522939D01*
X184147284Y-95836158D01*
X184048870Y-96160589D01*
X183982729Y-96493098D01*
X183949500Y-96830491D01*
X183949500Y-97169508D01*
X183966248Y-97339561D01*
X183962044Y-97361725D01*
X183962492Y-97384283D01*
X183955659Y-97395393D01*
X183953229Y-97408207D01*
X183937708Y-97424581D01*
X183925890Y-97443799D01*
X183914135Y-97449451D01*
X183905164Y-97458917D01*
X183883256Y-97464301D01*
X183862923Y-97474079D01*
X183849978Y-97472479D01*
X183837313Y-97475592D01*
X183815970Y-97468276D01*
X183793581Y-97465509D01*
X183783557Y-97457165D01*
X183771218Y-97452936D01*
X183757217Y-97435241D01*
X183739880Y-97420810D01*
X183730706Y-97401734D01*
X183727865Y-97398143D01*
X183724588Y-97389015D01*
X183655442Y-97169710D01*
X183652648Y-97159284D01*
X183570025Y-96786597D01*
X183568152Y-96775971D01*
X183518326Y-96397506D01*
X183517386Y-96386771D01*
X183500618Y-96002702D01*
X183500500Y-95997293D01*
X183500500Y-90401577D01*
X213399500Y-90401577D01*
X213399500Y-90598422D01*
X213430290Y-90792826D01*
X213491117Y-90980029D01*
X213538956Y-91073917D01*
X213580476Y-91155405D01*
X213696172Y-91314646D01*
X213835354Y-91453828D01*
X213994595Y-91569524D01*
X214077455Y-91611743D01*
X214169970Y-91658882D01*
X214169972Y-91658882D01*
X214169975Y-91658884D01*
X214270317Y-91691487D01*
X214357173Y-91719709D01*
X214551578Y-91750500D01*
X214551583Y-91750500D01*
X214748422Y-91750500D01*
X214942826Y-91719709D01*
X215130025Y-91658884D01*
X215305405Y-91569524D01*
X215464646Y-91453828D01*
X215603828Y-91314646D01*
X215719524Y-91155405D01*
X215808884Y-90980025D01*
X215869709Y-90792826D01*
X215893200Y-90644509D01*
X215900500Y-90598422D01*
X215900500Y-90401577D01*
X215869709Y-90207173D01*
X215808882Y-90019970D01*
X215719523Y-89844594D01*
X215603828Y-89685354D01*
X215464646Y-89546172D01*
X215305405Y-89430476D01*
X215130029Y-89341117D01*
X214942826Y-89280290D01*
X214748422Y-89249500D01*
X214748417Y-89249500D01*
X214551583Y-89249500D01*
X214551578Y-89249500D01*
X214357173Y-89280290D01*
X214169970Y-89341117D01*
X213994594Y-89430476D01*
X213903741Y-89496485D01*
X213835354Y-89546172D01*
X213835352Y-89546174D01*
X213835351Y-89546174D01*
X213696174Y-89685351D01*
X213696174Y-89685352D01*
X213696172Y-89685354D01*
X213646485Y-89753741D01*
X213580476Y-89844594D01*
X213491117Y-90019970D01*
X213430290Y-90207173D01*
X213399500Y-90401577D01*
X183500500Y-90401577D01*
X183500500Y-73814071D01*
X188849499Y-73814071D01*
X188874497Y-73939738D01*
X188874499Y-73939744D01*
X188923533Y-74058124D01*
X188923538Y-74058133D01*
X188994723Y-74164668D01*
X188994725Y-74164671D01*
X189013179Y-74183124D01*
X189046666Y-74244446D01*
X189049500Y-74270807D01*
X189049500Y-85309309D01*
X189066578Y-85373044D01*
X189080201Y-85423887D01*
X189139511Y-85526614D01*
X192723386Y-89110489D01*
X192723387Y-89110490D01*
X192723389Y-89110491D01*
X192782693Y-89144729D01*
X192782696Y-89144732D01*
X192816937Y-89164500D01*
X192826114Y-89169799D01*
X192940691Y-89200500D01*
X192940694Y-89200500D01*
X203809308Y-89200500D01*
X203809309Y-89200500D01*
X203899673Y-89176286D01*
X203923887Y-89169799D01*
X204026614Y-89110489D01*
X205110490Y-88026613D01*
X205169799Y-87923886D01*
X205200500Y-87809309D01*
X205200500Y-87020807D01*
X205220185Y-86953768D01*
X205236821Y-86933124D01*
X205255274Y-86914671D01*
X205255276Y-86914669D01*
X205326465Y-86808127D01*
X205375501Y-86689744D01*
X205400500Y-86564069D01*
X205400500Y-86435931D01*
X205400500Y-86435928D01*
X205375502Y-86310261D01*
X205375501Y-86310260D01*
X205375501Y-86310256D01*
X205326465Y-86191873D01*
X205326464Y-86191872D01*
X205326461Y-86191866D01*
X205255276Y-86085331D01*
X205255273Y-86085327D01*
X205164672Y-85994726D01*
X205164668Y-85994723D01*
X205058133Y-85923538D01*
X205058124Y-85923533D01*
X204988284Y-85894605D01*
X204939744Y-85874499D01*
X204939738Y-85874497D01*
X204814071Y-85849500D01*
X204814069Y-85849500D01*
X204685931Y-85849500D01*
X204685929Y-85849500D01*
X204560261Y-85874497D01*
X204560255Y-85874499D01*
X204441875Y-85923533D01*
X204441866Y-85923538D01*
X204335331Y-85994723D01*
X204335327Y-85994726D01*
X204244726Y-86085327D01*
X204244723Y-86085331D01*
X204173538Y-86191866D01*
X204173533Y-86191875D01*
X204124499Y-86310255D01*
X204124497Y-86310261D01*
X204099500Y-86435928D01*
X204099500Y-86435931D01*
X204099500Y-86564069D01*
X204099500Y-86564071D01*
X204099499Y-86564071D01*
X204124497Y-86689738D01*
X204124499Y-86689744D01*
X204173533Y-86808124D01*
X204173538Y-86808133D01*
X204244723Y-86914668D01*
X204244725Y-86914671D01*
X204263179Y-86933124D01*
X204296666Y-86994446D01*
X204299500Y-87020807D01*
X204299500Y-87512035D01*
X204279815Y-87579074D01*
X204263181Y-87599716D01*
X203599716Y-88263181D01*
X203538393Y-88296666D01*
X203512035Y-88299500D01*
X193237965Y-88299500D01*
X193170926Y-88279815D01*
X193150284Y-88263181D01*
X189986819Y-85099716D01*
X189953334Y-85038393D01*
X189950500Y-85012035D01*
X189950500Y-81147172D01*
X189970185Y-81080133D01*
X190022989Y-81034378D01*
X190092147Y-81024434D01*
X190143392Y-81044071D01*
X190191864Y-81076460D01*
X190191872Y-81076464D01*
X190191873Y-81076465D01*
X190310256Y-81125501D01*
X190374455Y-81138271D01*
X190407471Y-81144839D01*
X190469382Y-81177224D01*
X190470961Y-81178775D01*
X191192686Y-81900500D01*
X191306814Y-81966392D01*
X191434108Y-82000500D01*
X191565893Y-82000500D01*
X196625500Y-82000500D01*
X196692539Y-82020185D01*
X196738294Y-82072989D01*
X196749500Y-82124500D01*
X196749500Y-83315891D01*
X196783608Y-83443187D01*
X196816554Y-83500250D01*
X196849500Y-83557314D01*
X196849502Y-83557316D01*
X199071224Y-85779038D01*
X199104709Y-85840361D01*
X199105160Y-85842527D01*
X199124497Y-85939738D01*
X199124499Y-85939744D01*
X199173533Y-86058124D01*
X199173538Y-86058133D01*
X199244723Y-86164668D01*
X199244726Y-86164672D01*
X199335327Y-86255273D01*
X199335331Y-86255276D01*
X199441866Y-86326461D01*
X199441872Y-86326464D01*
X199441873Y-86326465D01*
X199560256Y-86375501D01*
X199560260Y-86375501D01*
X199560261Y-86375502D01*
X199685928Y-86400500D01*
X199685931Y-86400500D01*
X199814071Y-86400500D01*
X199898615Y-86383682D01*
X199939744Y-86375501D01*
X200058127Y-86326465D01*
X200164669Y-86255276D01*
X200255276Y-86164669D01*
X200326465Y-86058127D01*
X200375501Y-85939744D01*
X200384480Y-85894605D01*
X200400500Y-85814071D01*
X200400500Y-85784910D01*
X213299500Y-85784910D01*
X213299500Y-85981755D01*
X213330290Y-86176159D01*
X213391117Y-86363362D01*
X213480476Y-86538738D01*
X213596172Y-86697979D01*
X213735354Y-86837161D01*
X213894595Y-86952857D01*
X213976219Y-86994446D01*
X214069970Y-87042215D01*
X214069972Y-87042215D01*
X214069975Y-87042217D01*
X214170317Y-87074820D01*
X214257173Y-87103042D01*
X214451578Y-87133833D01*
X214451583Y-87133833D01*
X214648422Y-87133833D01*
X214842826Y-87103042D01*
X215030025Y-87042217D01*
X215205405Y-86952857D01*
X215364646Y-86837161D01*
X215503828Y-86697979D01*
X215619524Y-86538738D01*
X215708884Y-86363358D01*
X215769709Y-86176159D01*
X215784095Y-86085331D01*
X215800500Y-85981755D01*
X215800500Y-85784910D01*
X219799500Y-85784910D01*
X219799500Y-85981755D01*
X219830290Y-86176159D01*
X219891117Y-86363362D01*
X219980476Y-86538738D01*
X220096172Y-86697979D01*
X220235354Y-86837161D01*
X220394595Y-86952857D01*
X220476219Y-86994446D01*
X220569970Y-87042215D01*
X220569972Y-87042215D01*
X220569975Y-87042217D01*
X220670317Y-87074820D01*
X220757173Y-87103042D01*
X220951578Y-87133833D01*
X220951583Y-87133833D01*
X221148422Y-87133833D01*
X221342826Y-87103042D01*
X221530025Y-87042217D01*
X221705405Y-86952857D01*
X221864646Y-86837161D01*
X222003828Y-86697979D01*
X222119524Y-86538738D01*
X222208884Y-86363358D01*
X222269709Y-86176159D01*
X222284095Y-86085331D01*
X222300500Y-85981755D01*
X222300500Y-85784910D01*
X222269709Y-85590506D01*
X222221415Y-85441875D01*
X222208884Y-85403308D01*
X222208882Y-85403305D01*
X222208882Y-85403303D01*
X222119523Y-85227927D01*
X222003828Y-85068687D01*
X221864646Y-84929505D01*
X221705405Y-84813809D01*
X221530029Y-84724450D01*
X221342826Y-84663623D01*
X221148422Y-84632833D01*
X221148417Y-84632833D01*
X220951583Y-84632833D01*
X220951578Y-84632833D01*
X220757173Y-84663623D01*
X220569970Y-84724450D01*
X220394594Y-84813809D01*
X220303741Y-84879818D01*
X220235354Y-84929505D01*
X220235352Y-84929507D01*
X220235351Y-84929507D01*
X220096174Y-85068684D01*
X220096174Y-85068685D01*
X220096172Y-85068687D01*
X220055622Y-85124499D01*
X219980476Y-85227927D01*
X219891117Y-85403303D01*
X219830290Y-85590506D01*
X219799500Y-85784910D01*
X215800500Y-85784910D01*
X215769709Y-85590506D01*
X215721415Y-85441875D01*
X215708884Y-85403308D01*
X215708882Y-85403305D01*
X215708882Y-85403303D01*
X215619523Y-85227927D01*
X215503828Y-85068687D01*
X215364646Y-84929505D01*
X215205405Y-84813809D01*
X215030029Y-84724450D01*
X214842826Y-84663623D01*
X214648422Y-84632833D01*
X214648417Y-84632833D01*
X214451583Y-84632833D01*
X214451578Y-84632833D01*
X214257173Y-84663623D01*
X214069970Y-84724450D01*
X213894594Y-84813809D01*
X213803741Y-84879818D01*
X213735354Y-84929505D01*
X213735352Y-84929507D01*
X213735351Y-84929507D01*
X213596174Y-85068684D01*
X213596174Y-85068685D01*
X213596172Y-85068687D01*
X213555622Y-85124499D01*
X213480476Y-85227927D01*
X213391117Y-85403303D01*
X213330290Y-85590506D01*
X213299500Y-85784910D01*
X200400500Y-85784910D01*
X200400500Y-85685928D01*
X200375502Y-85560261D01*
X200375501Y-85560260D01*
X200375501Y-85560256D01*
X200326465Y-85441873D01*
X200326464Y-85441872D01*
X200326461Y-85441866D01*
X200255276Y-85335331D01*
X200255273Y-85335327D01*
X200164672Y-85244726D01*
X200164668Y-85244723D01*
X200058133Y-85173538D01*
X200058124Y-85173533D01*
X199939744Y-85124499D01*
X199939738Y-85124497D01*
X199842527Y-85105160D01*
X199780616Y-85072774D01*
X199779038Y-85071224D01*
X197786819Y-83079005D01*
X197753334Y-83017682D01*
X197750500Y-82991324D01*
X197750500Y-81959432D01*
X197770185Y-81892393D01*
X197771398Y-81890541D01*
X197826461Y-81808133D01*
X197826461Y-81808132D01*
X197826465Y-81808127D01*
X197875501Y-81689744D01*
X197900500Y-81564069D01*
X197900500Y-81435931D01*
X197900500Y-81435928D01*
X197875502Y-81310261D01*
X197875501Y-81310260D01*
X197875501Y-81310256D01*
X197826465Y-81191873D01*
X197826464Y-81191872D01*
X197826461Y-81191866D01*
X197786173Y-81131571D01*
X205349499Y-81131571D01*
X205374497Y-81257238D01*
X205374499Y-81257244D01*
X205423533Y-81375624D01*
X205423538Y-81375633D01*
X205494723Y-81482168D01*
X205494726Y-81482172D01*
X205585327Y-81572773D01*
X205585331Y-81572776D01*
X205691866Y-81643961D01*
X205691872Y-81643964D01*
X205691873Y-81643965D01*
X205810256Y-81693001D01*
X205810260Y-81693001D01*
X205810261Y-81693002D01*
X205935928Y-81718000D01*
X205935931Y-81718000D01*
X206064071Y-81718000D01*
X206148615Y-81701182D01*
X206189744Y-81693001D01*
X206308127Y-81643965D01*
X206414669Y-81572776D01*
X206505276Y-81482169D01*
X206576465Y-81375627D01*
X206614041Y-81284910D01*
X213299500Y-81284910D01*
X213299500Y-81481755D01*
X213330290Y-81676159D01*
X213391117Y-81863362D01*
X213443614Y-81966392D01*
X213480476Y-82038738D01*
X213596172Y-82197979D01*
X213735354Y-82337161D01*
X213894595Y-82452857D01*
X213977455Y-82495076D01*
X214069970Y-82542215D01*
X214069972Y-82542215D01*
X214069975Y-82542217D01*
X214170317Y-82574820D01*
X214257173Y-82603042D01*
X214451578Y-82633833D01*
X214451583Y-82633833D01*
X214648422Y-82633833D01*
X214842826Y-82603042D01*
X215030025Y-82542217D01*
X215205405Y-82452857D01*
X215364646Y-82337161D01*
X215503828Y-82197979D01*
X215619524Y-82038738D01*
X215708884Y-81863358D01*
X215769709Y-81676159D01*
X215787462Y-81564071D01*
X215800500Y-81481755D01*
X215800500Y-81284910D01*
X219799500Y-81284910D01*
X219799500Y-81481755D01*
X219830290Y-81676159D01*
X219891117Y-81863362D01*
X219943614Y-81966392D01*
X219980476Y-82038738D01*
X220096172Y-82197979D01*
X220235354Y-82337161D01*
X220394595Y-82452857D01*
X220477455Y-82495076D01*
X220569970Y-82542215D01*
X220569972Y-82542215D01*
X220569975Y-82542217D01*
X220670317Y-82574820D01*
X220757173Y-82603042D01*
X220951578Y-82633833D01*
X220951583Y-82633833D01*
X221148422Y-82633833D01*
X221342826Y-82603042D01*
X221530025Y-82542217D01*
X221705405Y-82452857D01*
X221864646Y-82337161D01*
X222003828Y-82197979D01*
X222119524Y-82038738D01*
X222208884Y-81863358D01*
X222269709Y-81676159D01*
X222287462Y-81564071D01*
X222300500Y-81481755D01*
X222300500Y-81284910D01*
X222269709Y-81090506D01*
X222215456Y-80923535D01*
X222208884Y-80903308D01*
X222208882Y-80903305D01*
X222208882Y-80903303D01*
X222144044Y-80776051D01*
X222119524Y-80727928D01*
X222003828Y-80568687D01*
X221864646Y-80429505D01*
X221705405Y-80313809D01*
X221665403Y-80293427D01*
X221530029Y-80224450D01*
X221342826Y-80163623D01*
X221148422Y-80132833D01*
X221148417Y-80132833D01*
X220951583Y-80132833D01*
X220951578Y-80132833D01*
X220757173Y-80163623D01*
X220569970Y-80224450D01*
X220394594Y-80313809D01*
X220307131Y-80377356D01*
X220235354Y-80429505D01*
X220235352Y-80429507D01*
X220235351Y-80429507D01*
X220096174Y-80568684D01*
X220096174Y-80568685D01*
X220096172Y-80568687D01*
X220053944Y-80626808D01*
X219980476Y-80727927D01*
X219891117Y-80903303D01*
X219830290Y-81090506D01*
X219799500Y-81284910D01*
X215800500Y-81284910D01*
X215769709Y-81090506D01*
X215715456Y-80923535D01*
X215708884Y-80903308D01*
X215708882Y-80903305D01*
X215708882Y-80903303D01*
X215644044Y-80776051D01*
X215619524Y-80727928D01*
X215503828Y-80568687D01*
X215364646Y-80429505D01*
X215205405Y-80313809D01*
X215165403Y-80293427D01*
X215030029Y-80224450D01*
X214842826Y-80163623D01*
X214648422Y-80132833D01*
X214648417Y-80132833D01*
X214451583Y-80132833D01*
X214451578Y-80132833D01*
X214257173Y-80163623D01*
X214069970Y-80224450D01*
X213894594Y-80313809D01*
X213807131Y-80377356D01*
X213735354Y-80429505D01*
X213735352Y-80429507D01*
X213735351Y-80429507D01*
X213596174Y-80568684D01*
X213596174Y-80568685D01*
X213596172Y-80568687D01*
X213553944Y-80626808D01*
X213480476Y-80727927D01*
X213391117Y-80903303D01*
X213330290Y-81090506D01*
X213299500Y-81284910D01*
X206614041Y-81284910D01*
X206625501Y-81257244D01*
X206650500Y-81131569D01*
X206650500Y-81095896D01*
X206651968Y-81086441D01*
X206662929Y-81063134D01*
X206670185Y-81038426D01*
X206680671Y-81025413D01*
X206681705Y-81023215D01*
X206683195Y-81022280D01*
X206686819Y-81017784D01*
X206741422Y-80963181D01*
X206860490Y-80844114D01*
X206873019Y-80822412D01*
X206919798Y-80741389D01*
X206919800Y-80741384D01*
X206932714Y-80693188D01*
X206932714Y-80693187D01*
X206943528Y-80652827D01*
X206950500Y-80626809D01*
X206950500Y-77020807D01*
X206970185Y-76953768D01*
X206986821Y-76933124D01*
X207005274Y-76914671D01*
X207005276Y-76914669D01*
X207076465Y-76808127D01*
X207125501Y-76689744D01*
X207129778Y-76668244D01*
X213499500Y-76668244D01*
X213499500Y-76865089D01*
X213530290Y-77059493D01*
X213591117Y-77246696D01*
X213679317Y-77419798D01*
X213680476Y-77422072D01*
X213796172Y-77581313D01*
X213935354Y-77720495D01*
X214094595Y-77836191D01*
X214177455Y-77878410D01*
X214269970Y-77925549D01*
X214269972Y-77925549D01*
X214269975Y-77925551D01*
X214370317Y-77958154D01*
X214457173Y-77986376D01*
X214651578Y-78017167D01*
X214651583Y-78017167D01*
X214848422Y-78017167D01*
X215042826Y-77986376D01*
X215230025Y-77925551D01*
X215405405Y-77836191D01*
X215564646Y-77720495D01*
X215703828Y-77581313D01*
X215819524Y-77422072D01*
X215908884Y-77246692D01*
X215969709Y-77059493D01*
X215977758Y-77008675D01*
X216000500Y-76865089D01*
X216000500Y-76668244D01*
X219999500Y-76668244D01*
X219999500Y-76865089D01*
X220030290Y-77059493D01*
X220091117Y-77246696D01*
X220179317Y-77419798D01*
X220180476Y-77422072D01*
X220296172Y-77581313D01*
X220435354Y-77720495D01*
X220594595Y-77836191D01*
X220677455Y-77878410D01*
X220769970Y-77925549D01*
X220769972Y-77925549D01*
X220769975Y-77925551D01*
X220870317Y-77958154D01*
X220957173Y-77986376D01*
X221151578Y-78017167D01*
X221151583Y-78017167D01*
X221348422Y-78017167D01*
X221542826Y-77986376D01*
X221730025Y-77925551D01*
X221905405Y-77836191D01*
X222064646Y-77720495D01*
X222203828Y-77581313D01*
X222319524Y-77422072D01*
X222408884Y-77246692D01*
X222469709Y-77059493D01*
X222477758Y-77008675D01*
X222500500Y-76865089D01*
X222500500Y-76668244D01*
X222469709Y-76473840D01*
X222416558Y-76310261D01*
X222408884Y-76286642D01*
X222408882Y-76286639D01*
X222408882Y-76286637D01*
X222319523Y-76111261D01*
X222311135Y-76099716D01*
X222203828Y-75952021D01*
X222064646Y-75812839D01*
X221905405Y-75697143D01*
X221730029Y-75607784D01*
X221542826Y-75546957D01*
X221348422Y-75516167D01*
X221348417Y-75516167D01*
X221151583Y-75516167D01*
X221151578Y-75516167D01*
X220957173Y-75546957D01*
X220769970Y-75607784D01*
X220594594Y-75697143D01*
X220525582Y-75747284D01*
X220435354Y-75812839D01*
X220435352Y-75812841D01*
X220435351Y-75812841D01*
X220296174Y-75952018D01*
X220296174Y-75952019D01*
X220296172Y-75952021D01*
X220265147Y-75994723D01*
X220180476Y-76111261D01*
X220091117Y-76286637D01*
X220030290Y-76473840D01*
X219999500Y-76668244D01*
X216000500Y-76668244D01*
X215969709Y-76473840D01*
X215916558Y-76310261D01*
X215908884Y-76286642D01*
X215908882Y-76286639D01*
X215908882Y-76286637D01*
X215819523Y-76111261D01*
X215811135Y-76099716D01*
X215703828Y-75952021D01*
X215564646Y-75812839D01*
X215405405Y-75697143D01*
X215230029Y-75607784D01*
X215042826Y-75546957D01*
X214848422Y-75516167D01*
X214848417Y-75516167D01*
X214651583Y-75516167D01*
X214651578Y-75516167D01*
X214457173Y-75546957D01*
X214269970Y-75607784D01*
X214094594Y-75697143D01*
X214025582Y-75747284D01*
X213935354Y-75812839D01*
X213935352Y-75812841D01*
X213935351Y-75812841D01*
X213796174Y-75952018D01*
X213796174Y-75952019D01*
X213796172Y-75952021D01*
X213765147Y-75994723D01*
X213680476Y-76111261D01*
X213591117Y-76286637D01*
X213530290Y-76473840D01*
X213499500Y-76668244D01*
X207129778Y-76668244D01*
X207132095Y-76656593D01*
X207135558Y-76639187D01*
X207135558Y-76639186D01*
X207150500Y-76564071D01*
X207150500Y-76435928D01*
X207125502Y-76310261D01*
X207125501Y-76310260D01*
X207125501Y-76310256D01*
X207076465Y-76191873D01*
X207076464Y-76191872D01*
X207076461Y-76191866D01*
X207005276Y-76085331D01*
X207005273Y-76085327D01*
X206914672Y-75994726D01*
X206914668Y-75994723D01*
X206808133Y-75923538D01*
X206808124Y-75923533D01*
X206689744Y-75874499D01*
X206689738Y-75874497D01*
X206564071Y-75849500D01*
X206564069Y-75849500D01*
X206435931Y-75849500D01*
X206435929Y-75849500D01*
X206310261Y-75874497D01*
X206310255Y-75874499D01*
X206191875Y-75923533D01*
X206191866Y-75923538D01*
X206085331Y-75994723D01*
X206085327Y-75994726D01*
X205994726Y-76085327D01*
X205994723Y-76085331D01*
X205923538Y-76191866D01*
X205923533Y-76191875D01*
X205874499Y-76310255D01*
X205874497Y-76310261D01*
X205849500Y-76435928D01*
X205849500Y-76435931D01*
X205849500Y-76564069D01*
X205849500Y-76564071D01*
X205849499Y-76564071D01*
X205874497Y-76689738D01*
X205874499Y-76689744D01*
X205923533Y-76808124D01*
X205923538Y-76808133D01*
X205994723Y-76914668D01*
X205994725Y-76914671D01*
X206013179Y-76933124D01*
X206046666Y-76994446D01*
X206049500Y-77020807D01*
X206049500Y-80293427D01*
X206029815Y-80360466D01*
X205977011Y-80406221D01*
X205941882Y-80415690D01*
X205941906Y-80415811D01*
X205940113Y-80416167D01*
X205937656Y-80416830D01*
X205935927Y-80417000D01*
X205810261Y-80441997D01*
X205810255Y-80441999D01*
X205691875Y-80491033D01*
X205691866Y-80491038D01*
X205585331Y-80562223D01*
X205585327Y-80562226D01*
X205494726Y-80652827D01*
X205494723Y-80652831D01*
X205423538Y-80759366D01*
X205423533Y-80759375D01*
X205374499Y-80877755D01*
X205374497Y-80877761D01*
X205349500Y-81003428D01*
X205349500Y-81003431D01*
X205349500Y-81131569D01*
X205349500Y-81131571D01*
X205349499Y-81131571D01*
X197786173Y-81131571D01*
X197755276Y-81085331D01*
X197755273Y-81085327D01*
X197664672Y-80994726D01*
X197664668Y-80994723D01*
X197558133Y-80923538D01*
X197558124Y-80923533D01*
X197439744Y-80874499D01*
X197439738Y-80874497D01*
X197314071Y-80849500D01*
X197314069Y-80849500D01*
X197185931Y-80849500D01*
X197185929Y-80849500D01*
X197060261Y-80874497D01*
X197060255Y-80874499D01*
X196941875Y-80923533D01*
X196941866Y-80923538D01*
X196859459Y-80978602D01*
X196792782Y-80999480D01*
X196790568Y-80999500D01*
X191758676Y-80999500D01*
X191691637Y-80979815D01*
X191670995Y-80963181D01*
X191178775Y-80470961D01*
X191145290Y-80409638D01*
X191144839Y-80407471D01*
X191128676Y-80326219D01*
X191125501Y-80310256D01*
X191076465Y-80191873D01*
X191076464Y-80191871D01*
X191076458Y-80191861D01*
X191021398Y-80109457D01*
X191000520Y-80042780D01*
X191000500Y-80040567D01*
X191000500Y-78546572D01*
X195582000Y-78546572D01*
X195606998Y-78672239D01*
X195607000Y-78672245D01*
X195656034Y-78790625D01*
X195656039Y-78790634D01*
X195727224Y-78897169D01*
X195727227Y-78897173D01*
X195817828Y-78987774D01*
X195817832Y-78987777D01*
X195924367Y-79058962D01*
X195924373Y-79058965D01*
X195924374Y-79058966D01*
X196042757Y-79108002D01*
X196042761Y-79108002D01*
X196042762Y-79108003D01*
X196168429Y-79133001D01*
X196168432Y-79133001D01*
X196296572Y-79133001D01*
X196381116Y-79116183D01*
X196422245Y-79108002D01*
X196540628Y-79058966D01*
X196647170Y-78987777D01*
X196737777Y-78897170D01*
X196808966Y-78790628D01*
X196858002Y-78672245D01*
X196883001Y-78546570D01*
X196883001Y-78418432D01*
X196883001Y-78418429D01*
X196858003Y-78292762D01*
X196858002Y-78292761D01*
X196858002Y-78292757D01*
X196808966Y-78174374D01*
X196808965Y-78174373D01*
X196808962Y-78174367D01*
X196737777Y-78067832D01*
X196737774Y-78067828D01*
X196719320Y-78049374D01*
X196685835Y-77988051D01*
X196683001Y-77961693D01*
X196683001Y-77574500D01*
X196702686Y-77507461D01*
X196755490Y-77461706D01*
X196807001Y-77450500D01*
X199309308Y-77450500D01*
X199309309Y-77450500D01*
X199399673Y-77426286D01*
X199423887Y-77419799D01*
X199526614Y-77360489D01*
X200360489Y-76526614D01*
X200419799Y-76423887D01*
X200423921Y-76408501D01*
X200429553Y-76387487D01*
X200439731Y-76349500D01*
X200450500Y-76309309D01*
X200450500Y-72270807D01*
X200456774Y-72249437D01*
X200458410Y-72227230D01*
X200467388Y-72213291D01*
X200470185Y-72203768D01*
X200475389Y-72196288D01*
X200480637Y-72189307D01*
X200501701Y-72168244D01*
X213499500Y-72168244D01*
X213499500Y-72365089D01*
X213530290Y-72559493D01*
X213591117Y-72746696D01*
X213680476Y-72922072D01*
X213796172Y-73081313D01*
X213935354Y-73220495D01*
X214094595Y-73336191D01*
X214177455Y-73378410D01*
X214269970Y-73425549D01*
X214269972Y-73425549D01*
X214269975Y-73425551D01*
X214320209Y-73441873D01*
X214457173Y-73486376D01*
X214651578Y-73517167D01*
X214651583Y-73517167D01*
X214848422Y-73517167D01*
X215042826Y-73486376D01*
X215230025Y-73425551D01*
X215405405Y-73336191D01*
X215564646Y-73220495D01*
X215703828Y-73081313D01*
X215819524Y-72922072D01*
X215908884Y-72746692D01*
X215969709Y-72559493D01*
X216000500Y-72365089D01*
X216000500Y-72168244D01*
X219999500Y-72168244D01*
X219999500Y-72365089D01*
X220030290Y-72559493D01*
X220091117Y-72746696D01*
X220180476Y-72922072D01*
X220296172Y-73081313D01*
X220435354Y-73220495D01*
X220594595Y-73336191D01*
X220677455Y-73378410D01*
X220769970Y-73425549D01*
X220769972Y-73425549D01*
X220769975Y-73425551D01*
X220820209Y-73441873D01*
X220957173Y-73486376D01*
X221151578Y-73517167D01*
X221151583Y-73517167D01*
X221348422Y-73517167D01*
X221542826Y-73486376D01*
X221730025Y-73425551D01*
X221905405Y-73336191D01*
X222064646Y-73220495D01*
X222203828Y-73081313D01*
X222319524Y-72922072D01*
X222408884Y-72746692D01*
X222469709Y-72559493D01*
X222500500Y-72365089D01*
X222500500Y-72168244D01*
X222469709Y-71973840D01*
X222417796Y-71814071D01*
X222408884Y-71786642D01*
X222408882Y-71786639D01*
X222408882Y-71786637D01*
X222361743Y-71694122D01*
X222319524Y-71611262D01*
X222203828Y-71452021D01*
X222064646Y-71312839D01*
X221905405Y-71197143D01*
X221730029Y-71107784D01*
X221542826Y-71046957D01*
X221348422Y-71016167D01*
X221348417Y-71016167D01*
X221151583Y-71016167D01*
X221151578Y-71016167D01*
X220957173Y-71046957D01*
X220769970Y-71107784D01*
X220594594Y-71197143D01*
X220529103Y-71244726D01*
X220435354Y-71312839D01*
X220435352Y-71312841D01*
X220435351Y-71312841D01*
X220296174Y-71452018D01*
X220296174Y-71452019D01*
X220296172Y-71452021D01*
X220246485Y-71520408D01*
X220180476Y-71611261D01*
X220091117Y-71786637D01*
X220030290Y-71973840D01*
X219999500Y-72168244D01*
X216000500Y-72168244D01*
X215969709Y-71973840D01*
X215917796Y-71814071D01*
X215908884Y-71786642D01*
X215908882Y-71786639D01*
X215908882Y-71786637D01*
X215861743Y-71694122D01*
X215819524Y-71611262D01*
X215703828Y-71452021D01*
X215564646Y-71312839D01*
X215405405Y-71197143D01*
X215230029Y-71107784D01*
X215042826Y-71046957D01*
X214848422Y-71016167D01*
X214848417Y-71016167D01*
X214651583Y-71016167D01*
X214651578Y-71016167D01*
X214457173Y-71046957D01*
X214269970Y-71107784D01*
X214094594Y-71197143D01*
X214029103Y-71244726D01*
X213935354Y-71312839D01*
X213935352Y-71312841D01*
X213935351Y-71312841D01*
X213796174Y-71452018D01*
X213796174Y-71452019D01*
X213796172Y-71452021D01*
X213746485Y-71520408D01*
X213680476Y-71611261D01*
X213591117Y-71786637D01*
X213530290Y-71973840D01*
X213499500Y-72168244D01*
X200501701Y-72168244D01*
X200505276Y-72164669D01*
X200576465Y-72058127D01*
X200625501Y-71939744D01*
X200650500Y-71814069D01*
X200650500Y-71685931D01*
X200650500Y-71685928D01*
X200625502Y-71560261D01*
X200625501Y-71560260D01*
X200625501Y-71560256D01*
X200587574Y-71468692D01*
X200576466Y-71441875D01*
X200576461Y-71441866D01*
X200505276Y-71335331D01*
X200505273Y-71335327D01*
X200414672Y-71244726D01*
X200414668Y-71244723D01*
X200308133Y-71173538D01*
X200308124Y-71173533D01*
X200189744Y-71124499D01*
X200189738Y-71124497D01*
X200064071Y-71099500D01*
X200064069Y-71099500D01*
X199935931Y-71099500D01*
X199935929Y-71099500D01*
X199810261Y-71124497D01*
X199810255Y-71124499D01*
X199691875Y-71173533D01*
X199691866Y-71173538D01*
X199585331Y-71244723D01*
X199585327Y-71244726D01*
X199494726Y-71335327D01*
X199494723Y-71335331D01*
X199423538Y-71441866D01*
X199423533Y-71441875D01*
X199374499Y-71560255D01*
X199374497Y-71560261D01*
X199349500Y-71685928D01*
X199349500Y-71685931D01*
X199349500Y-71814069D01*
X199349500Y-71814071D01*
X199349499Y-71814071D01*
X199374497Y-71939738D01*
X199374499Y-71939744D01*
X199423533Y-72058124D01*
X199423538Y-72058133D01*
X199494723Y-72164668D01*
X199494725Y-72164671D01*
X199513179Y-72183124D01*
X199546666Y-72244446D01*
X199549500Y-72270807D01*
X199549500Y-76012035D01*
X199529815Y-76079074D01*
X199513181Y-76099716D01*
X199099716Y-76513181D01*
X199038393Y-76546666D01*
X199012035Y-76549500D01*
X196440691Y-76549500D01*
X196350325Y-76573713D01*
X196350324Y-76573712D01*
X196326115Y-76580200D01*
X196326106Y-76580204D01*
X196223392Y-76639505D01*
X196223384Y-76639511D01*
X195872014Y-76990882D01*
X195872010Y-76990888D01*
X195812701Y-77093613D01*
X195809577Y-77105274D01*
X195809577Y-77105275D01*
X195782001Y-77208190D01*
X195782001Y-77961693D01*
X195762316Y-78028732D01*
X195745682Y-78049374D01*
X195727227Y-78067828D01*
X195727224Y-78067832D01*
X195656039Y-78174367D01*
X195656034Y-78174376D01*
X195607000Y-78292756D01*
X195606998Y-78292762D01*
X195582001Y-78418429D01*
X195582001Y-78418432D01*
X195582001Y-78546570D01*
X195582001Y-78546572D01*
X195582000Y-78546572D01*
X191000500Y-78546572D01*
X191000500Y-77008675D01*
X191020185Y-76941636D01*
X191036814Y-76920999D01*
X198198366Y-69759446D01*
X198259687Y-69725963D01*
X198329379Y-69730947D01*
X198342336Y-69736642D01*
X198407555Y-69769873D01*
X198572299Y-69823402D01*
X198743389Y-69850500D01*
X198743390Y-69850500D01*
X198916610Y-69850500D01*
X198916611Y-69850500D01*
X199087701Y-69823402D01*
X199252445Y-69769873D01*
X199406788Y-69691232D01*
X199546928Y-69589414D01*
X199669414Y-69466928D01*
X199771232Y-69326788D01*
X199785515Y-69298756D01*
X199833489Y-69247960D01*
X199901309Y-69231164D01*
X199967445Y-69253701D01*
X200010897Y-69308415D01*
X200020000Y-69355050D01*
X200020000Y-69647844D01*
X200026401Y-69707372D01*
X200026403Y-69707379D01*
X200076645Y-69842086D01*
X200076649Y-69842093D01*
X200162809Y-69957187D01*
X200162812Y-69957190D01*
X200277906Y-70043350D01*
X200277913Y-70043354D01*
X200412620Y-70093596D01*
X200412627Y-70093598D01*
X200472155Y-70099999D01*
X200472172Y-70100000D01*
X201120000Y-70100000D01*
X201120000Y-69183012D01*
X201177007Y-69215925D01*
X201304174Y-69250000D01*
X201435826Y-69250000D01*
X201562993Y-69215925D01*
X201620000Y-69183012D01*
X201620000Y-70100000D01*
X202267828Y-70100000D01*
X202267844Y-70099999D01*
X202327372Y-70093598D01*
X202327379Y-70093596D01*
X202462086Y-70043354D01*
X202462093Y-70043350D01*
X202577187Y-69957190D01*
X202577190Y-69957187D01*
X202663350Y-69842093D01*
X202663354Y-69842086D01*
X202713596Y-69707379D01*
X202713598Y-69707372D01*
X202719999Y-69647844D01*
X202720000Y-69647827D01*
X202720000Y-69000000D01*
X201803012Y-69000000D01*
X201835925Y-68942993D01*
X201870000Y-68815826D01*
X201870000Y-68684174D01*
X201835925Y-68557007D01*
X201803012Y-68500000D01*
X202720000Y-68500000D01*
X202720000Y-67852172D01*
X202719999Y-67852155D01*
X202713598Y-67792627D01*
X202713596Y-67792620D01*
X202663354Y-67657913D01*
X202663352Y-67657910D01*
X202635738Y-67621022D01*
X202635737Y-67621021D01*
X202583751Y-67551577D01*
X213549500Y-67551577D01*
X213549500Y-67748422D01*
X213580290Y-67942826D01*
X213641117Y-68130029D01*
X213696469Y-68238662D01*
X213730476Y-68305405D01*
X213846172Y-68464646D01*
X213985354Y-68603828D01*
X214144595Y-68719524D01*
X214226631Y-68761323D01*
X214319970Y-68808882D01*
X214319972Y-68808882D01*
X214319975Y-68808884D01*
X214420239Y-68841462D01*
X214507173Y-68869709D01*
X214701578Y-68900500D01*
X214701583Y-68900500D01*
X214898422Y-68900500D01*
X215092826Y-68869709D01*
X215115662Y-68862289D01*
X215280025Y-68808884D01*
X215455405Y-68719524D01*
X215614646Y-68603828D01*
X215753828Y-68464646D01*
X215869524Y-68305405D01*
X215958884Y-68130025D01*
X216019709Y-67942826D01*
X216034070Y-67852155D01*
X216050500Y-67748422D01*
X216050500Y-67551577D01*
X220049500Y-67551577D01*
X220049500Y-67748422D01*
X220080290Y-67942826D01*
X220141117Y-68130029D01*
X220196469Y-68238662D01*
X220230476Y-68305405D01*
X220346172Y-68464646D01*
X220485354Y-68603828D01*
X220644595Y-68719524D01*
X220726631Y-68761323D01*
X220819970Y-68808882D01*
X220819972Y-68808882D01*
X220819975Y-68808884D01*
X220920239Y-68841462D01*
X221007173Y-68869709D01*
X221201578Y-68900500D01*
X221201583Y-68900500D01*
X221398422Y-68900500D01*
X221592826Y-68869709D01*
X221615662Y-68862289D01*
X221780025Y-68808884D01*
X221955405Y-68719524D01*
X222114646Y-68603828D01*
X222253828Y-68464646D01*
X222369524Y-68305405D01*
X222458884Y-68130025D01*
X222519709Y-67942826D01*
X222534070Y-67852155D01*
X222550500Y-67748422D01*
X222550500Y-67551577D01*
X222519709Y-67357173D01*
X222458882Y-67169970D01*
X222369523Y-66994594D01*
X222253828Y-66835354D01*
X222114646Y-66696172D01*
X221955405Y-66580476D01*
X221780029Y-66491117D01*
X221592826Y-66430290D01*
X221398422Y-66399500D01*
X221398417Y-66399500D01*
X221201583Y-66399500D01*
X221201578Y-66399500D01*
X221007173Y-66430290D01*
X220819970Y-66491117D01*
X220644594Y-66580476D01*
X220553741Y-66646485D01*
X220485354Y-66696172D01*
X220485352Y-66696174D01*
X220485351Y-66696174D01*
X220346174Y-66835351D01*
X220346174Y-66835352D01*
X220346172Y-66835354D01*
X220296485Y-66903741D01*
X220230476Y-66994594D01*
X220141117Y-67169970D01*
X220080290Y-67357173D01*
X220049500Y-67551577D01*
X216050500Y-67551577D01*
X216019709Y-67357173D01*
X215958882Y-67169970D01*
X215869523Y-66994594D01*
X215753828Y-66835354D01*
X215614646Y-66696172D01*
X215455405Y-66580476D01*
X215280029Y-66491117D01*
X215092826Y-66430290D01*
X214898422Y-66399500D01*
X214898417Y-66399500D01*
X214701583Y-66399500D01*
X214701578Y-66399500D01*
X214507173Y-66430290D01*
X214319970Y-66491117D01*
X214144594Y-66580476D01*
X214053741Y-66646485D01*
X213985354Y-66696172D01*
X213985352Y-66696174D01*
X213985351Y-66696174D01*
X213846174Y-66835351D01*
X213846174Y-66835352D01*
X213846172Y-66835354D01*
X213796485Y-66903741D01*
X213730476Y-66994594D01*
X213641117Y-67169970D01*
X213580290Y-67357173D01*
X213549500Y-67551577D01*
X202583751Y-67551577D01*
X202577187Y-67542809D01*
X202462093Y-67456649D01*
X202462086Y-67456645D01*
X202327379Y-67406403D01*
X202327372Y-67406401D01*
X202267844Y-67400000D01*
X201620000Y-67400000D01*
X201620000Y-68316988D01*
X201562993Y-68284075D01*
X201435826Y-68250000D01*
X201304174Y-68250000D01*
X201177007Y-68284075D01*
X201120000Y-68316988D01*
X201120000Y-67400000D01*
X200472155Y-67400000D01*
X200412627Y-67406401D01*
X200412620Y-67406403D01*
X200277913Y-67456645D01*
X200277906Y-67456649D01*
X200162812Y-67542809D01*
X200162809Y-67542812D01*
X200076649Y-67657906D01*
X200076645Y-67657913D01*
X200026403Y-67792620D01*
X200026401Y-67792627D01*
X200020000Y-67852155D01*
X200020000Y-68144949D01*
X200000315Y-68211988D01*
X199947511Y-68257743D01*
X199878353Y-68267687D01*
X199814797Y-68238662D01*
X199785515Y-68201244D01*
X199771231Y-68173211D01*
X199669414Y-68033072D01*
X199546928Y-67910586D01*
X199406788Y-67808768D01*
X199252445Y-67730127D01*
X199087701Y-67676598D01*
X199087699Y-67676597D01*
X199087698Y-67676597D01*
X198956271Y-67655781D01*
X198916611Y-67649500D01*
X198743389Y-67649500D01*
X198703728Y-67655781D01*
X198572302Y-67676597D01*
X198407552Y-67730128D01*
X198253211Y-67808768D01*
X198173256Y-67866859D01*
X198113072Y-67910586D01*
X198113070Y-67910588D01*
X198113069Y-67910588D01*
X197990588Y-68033069D01*
X197990588Y-68033070D01*
X197990586Y-68033072D01*
X197946859Y-68093256D01*
X197888768Y-68173211D01*
X197810128Y-68327552D01*
X197756597Y-68492302D01*
X197729500Y-68663389D01*
X197729500Y-68761323D01*
X197720855Y-68790762D01*
X197714332Y-68820750D01*
X197710577Y-68825765D01*
X197709815Y-68828362D01*
X197693181Y-68849005D01*
X197601059Y-68941126D01*
X197539735Y-68974610D01*
X197470044Y-68969626D01*
X197414110Y-68927754D01*
X197389694Y-68862289D01*
X197390590Y-68841499D01*
X197390118Y-68841462D01*
X197390500Y-68836611D01*
X197390500Y-68663389D01*
X197381066Y-68603825D01*
X197363402Y-68492299D01*
X197309873Y-68327555D01*
X197231232Y-68173212D01*
X197129414Y-68033072D01*
X197006928Y-67910586D01*
X196866788Y-67808768D01*
X196712445Y-67730127D01*
X196547701Y-67676598D01*
X196547699Y-67676597D01*
X196547698Y-67676597D01*
X196416271Y-67655781D01*
X196376611Y-67649500D01*
X196203389Y-67649500D01*
X196163728Y-67655781D01*
X196032302Y-67676597D01*
X195867552Y-67730128D01*
X195713211Y-67808768D01*
X195633256Y-67866859D01*
X195573072Y-67910586D01*
X195573070Y-67910588D01*
X195573069Y-67910588D01*
X195450588Y-68033069D01*
X195450588Y-68033070D01*
X195450586Y-68033072D01*
X195406859Y-68093256D01*
X195348768Y-68173211D01*
X195270128Y-68327552D01*
X195216597Y-68492302D01*
X195189500Y-68663389D01*
X195189500Y-68836610D01*
X195210567Y-68969626D01*
X195216598Y-69007701D01*
X195270127Y-69172445D01*
X195348768Y-69326788D01*
X195450586Y-69466928D01*
X195573072Y-69589414D01*
X195713212Y-69691232D01*
X195867555Y-69769873D01*
X196032299Y-69823402D01*
X196203389Y-69850500D01*
X196203390Y-69850500D01*
X196376611Y-69850500D01*
X196381462Y-69850118D01*
X196381601Y-69851885D01*
X196443325Y-69859855D01*
X196496783Y-69904845D01*
X196517430Y-69971594D01*
X196498713Y-70038910D01*
X196481124Y-70061060D01*
X190192686Y-76349500D01*
X190162181Y-76380005D01*
X190100858Y-76413490D01*
X190031166Y-76408506D01*
X189975233Y-76366634D01*
X189950816Y-76301170D01*
X189950500Y-76292324D01*
X189950500Y-74270807D01*
X189970185Y-74203768D01*
X189986821Y-74183124D01*
X190005274Y-74164671D01*
X190005276Y-74164669D01*
X190076465Y-74058127D01*
X190125501Y-73939744D01*
X190150500Y-73814069D01*
X190150500Y-73685931D01*
X190150500Y-73685928D01*
X190125502Y-73560261D01*
X190125501Y-73560260D01*
X190125501Y-73560256D01*
X190076465Y-73441873D01*
X190076464Y-73441872D01*
X190076461Y-73441866D01*
X190005276Y-73335331D01*
X190005273Y-73335327D01*
X189914672Y-73244726D01*
X189914668Y-73244723D01*
X189808133Y-73173538D01*
X189808124Y-73173533D01*
X189689744Y-73124499D01*
X189689738Y-73124497D01*
X189564071Y-73099500D01*
X189564069Y-73099500D01*
X189435931Y-73099500D01*
X189435929Y-73099500D01*
X189310261Y-73124497D01*
X189310255Y-73124499D01*
X189191875Y-73173533D01*
X189191866Y-73173538D01*
X189085331Y-73244723D01*
X189085327Y-73244726D01*
X188994726Y-73335327D01*
X188994723Y-73335331D01*
X188923538Y-73441866D01*
X188923533Y-73441875D01*
X188874499Y-73560255D01*
X188874497Y-73560261D01*
X188849500Y-73685928D01*
X188849500Y-73685931D01*
X188849500Y-73814069D01*
X188849500Y-73814071D01*
X188849499Y-73814071D01*
X183500500Y-73814071D01*
X183500500Y-68663389D01*
X192649500Y-68663389D01*
X192649500Y-68836610D01*
X192670567Y-68969626D01*
X192676598Y-69007701D01*
X192730127Y-69172445D01*
X192808768Y-69326788D01*
X192910586Y-69466928D01*
X193033072Y-69589414D01*
X193173212Y-69691232D01*
X193327555Y-69769873D01*
X193492299Y-69823402D01*
X193663389Y-69850500D01*
X193663390Y-69850500D01*
X193836610Y-69850500D01*
X193836611Y-69850500D01*
X194007701Y-69823402D01*
X194172445Y-69769873D01*
X194326788Y-69691232D01*
X194466928Y-69589414D01*
X194589414Y-69466928D01*
X194691232Y-69326788D01*
X194769873Y-69172445D01*
X194823402Y-69007701D01*
X194850500Y-68836611D01*
X194850500Y-68663389D01*
X194823402Y-68492299D01*
X194769873Y-68327555D01*
X194691232Y-68173212D01*
X194589414Y-68033072D01*
X194466928Y-67910586D01*
X194326788Y-67808768D01*
X194172445Y-67730127D01*
X194007701Y-67676598D01*
X194007699Y-67676597D01*
X194007698Y-67676597D01*
X193876271Y-67655781D01*
X193836611Y-67649500D01*
X193663389Y-67649500D01*
X193623728Y-67655781D01*
X193492302Y-67676597D01*
X193327552Y-67730128D01*
X193173211Y-67808768D01*
X193093256Y-67866859D01*
X193033072Y-67910586D01*
X193033070Y-67910588D01*
X193033069Y-67910588D01*
X192910588Y-68033069D01*
X192910588Y-68033070D01*
X192910586Y-68033072D01*
X192866859Y-68093256D01*
X192808768Y-68173211D01*
X192730128Y-68327552D01*
X192676597Y-68492302D01*
X192649500Y-68663389D01*
X183500500Y-68663389D01*
X183500500Y-63002706D01*
X183500618Y-62997297D01*
X183506736Y-62857173D01*
X183517386Y-62613226D01*
X183518325Y-62602497D01*
X183554136Y-62330488D01*
X183949500Y-62330488D01*
X183949500Y-62669512D01*
X183949546Y-62669975D01*
X183982729Y-63006901D01*
X184048870Y-63339410D01*
X184147284Y-63663841D01*
X184277024Y-63977060D01*
X184277026Y-63977065D01*
X184436831Y-64276039D01*
X184436842Y-64276057D01*
X184625184Y-64557930D01*
X184625194Y-64557944D01*
X184840269Y-64820014D01*
X185079985Y-65059730D01*
X185079990Y-65059734D01*
X185079991Y-65059735D01*
X185342061Y-65274810D01*
X185623949Y-65463162D01*
X185623958Y-65463167D01*
X185623960Y-65463168D01*
X185922934Y-65622973D01*
X185922936Y-65622973D01*
X185922942Y-65622977D01*
X186236160Y-65752716D01*
X186560586Y-65851129D01*
X186893096Y-65917270D01*
X187230488Y-65950500D01*
X187230491Y-65950500D01*
X187569509Y-65950500D01*
X187569512Y-65950500D01*
X187906904Y-65917270D01*
X188239414Y-65851129D01*
X188563840Y-65752716D01*
X188877058Y-65622977D01*
X189176051Y-65463162D01*
X189457939Y-65274810D01*
X189720009Y-65059735D01*
X189959735Y-64820009D01*
X190174810Y-64557939D01*
X190363162Y-64276051D01*
X190522977Y-63977058D01*
X190652716Y-63663840D01*
X190751129Y-63339414D01*
X190808384Y-63051577D01*
X213549500Y-63051577D01*
X213549500Y-63248422D01*
X213580290Y-63442826D01*
X213641117Y-63630029D01*
X213730476Y-63805405D01*
X213846172Y-63964646D01*
X213985354Y-64103828D01*
X214144595Y-64219524D01*
X214227455Y-64261743D01*
X214319970Y-64308882D01*
X214319972Y-64308882D01*
X214319975Y-64308884D01*
X214420317Y-64341487D01*
X214507173Y-64369709D01*
X214701578Y-64400500D01*
X214701583Y-64400500D01*
X214898422Y-64400500D01*
X215092826Y-64369709D01*
X215280025Y-64308884D01*
X215455405Y-64219524D01*
X215614646Y-64103828D01*
X215753828Y-63964646D01*
X215869524Y-63805405D01*
X215958884Y-63630025D01*
X216019709Y-63442826D01*
X216036088Y-63339414D01*
X216050500Y-63248422D01*
X216050500Y-63051577D01*
X220049500Y-63051577D01*
X220049500Y-63248422D01*
X220080290Y-63442826D01*
X220141117Y-63630029D01*
X220230476Y-63805405D01*
X220346172Y-63964646D01*
X220485354Y-64103828D01*
X220644595Y-64219524D01*
X220727455Y-64261743D01*
X220819970Y-64308882D01*
X220819972Y-64308882D01*
X220819975Y-64308884D01*
X220920317Y-64341487D01*
X221007173Y-64369709D01*
X221201578Y-64400500D01*
X221201583Y-64400500D01*
X221398422Y-64400500D01*
X221592826Y-64369709D01*
X221780025Y-64308884D01*
X221955405Y-64219524D01*
X222114646Y-64103828D01*
X222253828Y-63964646D01*
X222369524Y-63805405D01*
X222458884Y-63630025D01*
X222519709Y-63442826D01*
X222536088Y-63339414D01*
X222550500Y-63248422D01*
X222550500Y-63051577D01*
X222519709Y-62857173D01*
X222458882Y-62669970D01*
X222369523Y-62494594D01*
X222253828Y-62335354D01*
X222114646Y-62196172D01*
X221955405Y-62080476D01*
X221780029Y-61991117D01*
X221592826Y-61930290D01*
X221398422Y-61899500D01*
X221398417Y-61899500D01*
X221201583Y-61899500D01*
X221201578Y-61899500D01*
X221007173Y-61930290D01*
X220819970Y-61991117D01*
X220644594Y-62080476D01*
X220553741Y-62146485D01*
X220485354Y-62196172D01*
X220485352Y-62196174D01*
X220485351Y-62196174D01*
X220346174Y-62335351D01*
X220346174Y-62335352D01*
X220346172Y-62335354D01*
X220296485Y-62403741D01*
X220230476Y-62494594D01*
X220141117Y-62669970D01*
X220080290Y-62857173D01*
X220049500Y-63051577D01*
X216050500Y-63051577D01*
X216019709Y-62857173D01*
X215958882Y-62669970D01*
X215869523Y-62494594D01*
X215753828Y-62335354D01*
X215614646Y-62196172D01*
X215455405Y-62080476D01*
X215280029Y-61991117D01*
X215092826Y-61930290D01*
X214898422Y-61899500D01*
X214898417Y-61899500D01*
X214701583Y-61899500D01*
X214701578Y-61899500D01*
X214507173Y-61930290D01*
X214319970Y-61991117D01*
X214144594Y-62080476D01*
X214053741Y-62146485D01*
X213985354Y-62196172D01*
X213985352Y-62196174D01*
X213985351Y-62196174D01*
X213846174Y-62335351D01*
X213846174Y-62335352D01*
X213846172Y-62335354D01*
X213796485Y-62403741D01*
X213730476Y-62494594D01*
X213641117Y-62669970D01*
X213580290Y-62857173D01*
X213549500Y-63051577D01*
X190808384Y-63051577D01*
X190817270Y-63006904D01*
X190850500Y-62669512D01*
X190850500Y-62330488D01*
X190817270Y-61993096D01*
X190751129Y-61660586D01*
X190652716Y-61336160D01*
X190522977Y-61022942D01*
X190363162Y-60723949D01*
X190174810Y-60442061D01*
X189959735Y-60179991D01*
X189959734Y-60179990D01*
X189959730Y-60179985D01*
X189720014Y-59940269D01*
X189457944Y-59725194D01*
X189457943Y-59725193D01*
X189457939Y-59725190D01*
X189176051Y-59536838D01*
X189176046Y-59536835D01*
X189176039Y-59536831D01*
X188877065Y-59377026D01*
X188877060Y-59377024D01*
X188563841Y-59247284D01*
X188373382Y-59189509D01*
X188239414Y-59148871D01*
X188239411Y-59148870D01*
X188239410Y-59148870D01*
X187906901Y-59082729D01*
X187669199Y-59059318D01*
X187569512Y-59049500D01*
X187230488Y-59049500D01*
X187139738Y-59058437D01*
X186893098Y-59082729D01*
X186560589Y-59148870D01*
X186236158Y-59247284D01*
X185922939Y-59377024D01*
X185922934Y-59377026D01*
X185623960Y-59536831D01*
X185623942Y-59536842D01*
X185342069Y-59725184D01*
X185342055Y-59725194D01*
X185079985Y-59940269D01*
X184840269Y-60179985D01*
X184625194Y-60442055D01*
X184625184Y-60442069D01*
X184436842Y-60723942D01*
X184436831Y-60723960D01*
X184277026Y-61022934D01*
X184277024Y-61022939D01*
X184147284Y-61336158D01*
X184048870Y-61660589D01*
X183982729Y-61993098D01*
X183962729Y-62196172D01*
X183949500Y-62330488D01*
X183554136Y-62330488D01*
X183568152Y-62224025D01*
X183570025Y-62213405D01*
X183652649Y-61840709D01*
X183655440Y-61830295D01*
X183770230Y-61466227D01*
X183773917Y-61456095D01*
X183920003Y-61103412D01*
X183924561Y-61093638D01*
X184100822Y-60755045D01*
X184106217Y-60745700D01*
X184311325Y-60423744D01*
X184317515Y-60414905D01*
X184549896Y-60112060D01*
X184556834Y-60103791D01*
X184814726Y-59822352D01*
X184822352Y-59814726D01*
X185103791Y-59556834D01*
X185112060Y-59549896D01*
X185414905Y-59317515D01*
X185423744Y-59311325D01*
X185745700Y-59106217D01*
X185755045Y-59100822D01*
X186093638Y-58924561D01*
X186103412Y-58920003D01*
X186456095Y-58773917D01*
X186466227Y-58770230D01*
X186830295Y-58655440D01*
X186840709Y-58652649D01*
X187213405Y-58570025D01*
X187224025Y-58568152D01*
X187602495Y-58518326D01*
X187613226Y-58517386D01*
X187997297Y-58500617D01*
X188002706Y-58500500D01*
X188065892Y-58500500D01*
X226434108Y-58500500D01*
X226497294Y-58500500D01*
X226502702Y-58500617D01*
G37*
%TD.AperFunction*%
%TD*%
M02*
