%TF.GenerationSoftware,KiCad,Pcbnew,9.0.7-9.0.7~ubuntu22.04.1*%
%TF.CreationDate,2026-01-26T15:11:09+05:30*%
%TF.ProjectId,ATTINY_85_OSCILLOSCOPE,41545449-4e59-45f3-9835-5f4f5343494c,rev?*%
%TF.SameCoordinates,Original*%
%TF.FileFunction,Legend,Top*%
%TF.FilePolarity,Positive*%
%FSLAX46Y46*%
G04 Gerber Fmt 4.6, Leading zero omitted, Abs format (unit mm)*
G04 Created by KiCad (PCBNEW 9.0.7-9.0.7~ubuntu22.04.1) date 2026-01-26 15:11:09*
%MOMM*%
%LPD*%
G01*
G04 APERTURE LIST*
%ADD10C,0.150000*%
%ADD11C,0.200000*%
%ADD12C,0.120000*%
G04 APERTURE END LIST*
D10*
X210583333Y-92654819D02*
X210250000Y-92178628D01*
X210011905Y-92654819D02*
X210011905Y-91654819D01*
X210011905Y-91654819D02*
X210392857Y-91654819D01*
X210392857Y-91654819D02*
X210488095Y-91702438D01*
X210488095Y-91702438D02*
X210535714Y-91750057D01*
X210535714Y-91750057D02*
X210583333Y-91845295D01*
X210583333Y-91845295D02*
X210583333Y-91988152D01*
X210583333Y-91988152D02*
X210535714Y-92083390D01*
X210535714Y-92083390D02*
X210488095Y-92131009D01*
X210488095Y-92131009D02*
X210392857Y-92178628D01*
X210392857Y-92178628D02*
X210011905Y-92178628D01*
X211440476Y-91988152D02*
X211440476Y-92654819D01*
X211202381Y-91607200D02*
X210964286Y-92321485D01*
X210964286Y-92321485D02*
X211583333Y-92321485D01*
X206454819Y-82866666D02*
X205978628Y-83199999D01*
X206454819Y-83438094D02*
X205454819Y-83438094D01*
X205454819Y-83438094D02*
X205454819Y-83057142D01*
X205454819Y-83057142D02*
X205502438Y-82961904D01*
X205502438Y-82961904D02*
X205550057Y-82914285D01*
X205550057Y-82914285D02*
X205645295Y-82866666D01*
X205645295Y-82866666D02*
X205788152Y-82866666D01*
X205788152Y-82866666D02*
X205883390Y-82914285D01*
X205883390Y-82914285D02*
X205931009Y-82961904D01*
X205931009Y-82961904D02*
X205978628Y-83057142D01*
X205978628Y-83057142D02*
X205978628Y-83438094D01*
X206454819Y-82390475D02*
X206454819Y-82199999D01*
X206454819Y-82199999D02*
X206407200Y-82104761D01*
X206407200Y-82104761D02*
X206359580Y-82057142D01*
X206359580Y-82057142D02*
X206216723Y-81961904D01*
X206216723Y-81961904D02*
X206026247Y-81914285D01*
X206026247Y-81914285D02*
X205645295Y-81914285D01*
X205645295Y-81914285D02*
X205550057Y-81961904D01*
X205550057Y-81961904D02*
X205502438Y-82009523D01*
X205502438Y-82009523D02*
X205454819Y-82104761D01*
X205454819Y-82104761D02*
X205454819Y-82295237D01*
X205454819Y-82295237D02*
X205502438Y-82390475D01*
X205502438Y-82390475D02*
X205550057Y-82438094D01*
X205550057Y-82438094D02*
X205645295Y-82485713D01*
X205645295Y-82485713D02*
X205883390Y-82485713D01*
X205883390Y-82485713D02*
X205978628Y-82438094D01*
X205978628Y-82438094D02*
X206026247Y-82390475D01*
X206026247Y-82390475D02*
X206073866Y-82295237D01*
X206073866Y-82295237D02*
X206073866Y-82104761D01*
X206073866Y-82104761D02*
X206026247Y-82009523D01*
X206026247Y-82009523D02*
X205978628Y-81961904D01*
X205978628Y-81961904D02*
X205883390Y-81914285D01*
X201454819Y-82766666D02*
X200978628Y-83099999D01*
X201454819Y-83338094D02*
X200454819Y-83338094D01*
X200454819Y-83338094D02*
X200454819Y-82957142D01*
X200454819Y-82957142D02*
X200502438Y-82861904D01*
X200502438Y-82861904D02*
X200550057Y-82814285D01*
X200550057Y-82814285D02*
X200645295Y-82766666D01*
X200645295Y-82766666D02*
X200788152Y-82766666D01*
X200788152Y-82766666D02*
X200883390Y-82814285D01*
X200883390Y-82814285D02*
X200931009Y-82861904D01*
X200931009Y-82861904D02*
X200978628Y-82957142D01*
X200978628Y-82957142D02*
X200978628Y-83338094D01*
X200454819Y-81861904D02*
X200454819Y-82338094D01*
X200454819Y-82338094D02*
X200931009Y-82385713D01*
X200931009Y-82385713D02*
X200883390Y-82338094D01*
X200883390Y-82338094D02*
X200835771Y-82242856D01*
X200835771Y-82242856D02*
X200835771Y-82004761D01*
X200835771Y-82004761D02*
X200883390Y-81909523D01*
X200883390Y-81909523D02*
X200931009Y-81861904D01*
X200931009Y-81861904D02*
X201026247Y-81814285D01*
X201026247Y-81814285D02*
X201264342Y-81814285D01*
X201264342Y-81814285D02*
X201359580Y-81861904D01*
X201359580Y-81861904D02*
X201407200Y-81909523D01*
X201407200Y-81909523D02*
X201454819Y-82004761D01*
X201454819Y-82004761D02*
X201454819Y-82242856D01*
X201454819Y-82242856D02*
X201407200Y-82338094D01*
X201407200Y-82338094D02*
X201359580Y-82385713D01*
D11*
G36*
X225583620Y-65082023D02*
G01*
X225647799Y-65146202D01*
X225685714Y-65297861D01*
X225685714Y-65606575D01*
X225647798Y-65758235D01*
X225583622Y-65822413D01*
X225524012Y-65852219D01*
X225380750Y-65852219D01*
X225321140Y-65822414D01*
X225256963Y-65758236D01*
X225219048Y-65606575D01*
X225219048Y-65297862D01*
X225256963Y-65146202D01*
X225321142Y-65082023D01*
X225380750Y-65052219D01*
X225524012Y-65052219D01*
X225583620Y-65082023D01*
G37*
G36*
X227350742Y-65087240D02*
G01*
X227417815Y-65154313D01*
X227453267Y-65225218D01*
X227495238Y-65393099D01*
X227495238Y-65511337D01*
X227453267Y-65679218D01*
X227417814Y-65750124D01*
X227350743Y-65817197D01*
X227245678Y-65852219D01*
X227123810Y-65852219D01*
X227123810Y-65052219D01*
X227245678Y-65052219D01*
X227350742Y-65087240D01*
G37*
G36*
X227806349Y-66163330D02*
G01*
X223907937Y-66163330D01*
X223907937Y-64952219D01*
X224019048Y-64952219D01*
X224019048Y-65952219D01*
X224020969Y-65971728D01*
X224035901Y-66007776D01*
X224063491Y-66035366D01*
X224099539Y-66050298D01*
X224138557Y-66050298D01*
X224174605Y-66035366D01*
X224202195Y-66007776D01*
X224217127Y-65971728D01*
X224219048Y-65952219D01*
X224219048Y-65528409D01*
X224590476Y-65528409D01*
X224590476Y-65952219D01*
X224592397Y-65971728D01*
X224607329Y-66007776D01*
X224634919Y-66035366D01*
X224670967Y-66050298D01*
X224709985Y-66050298D01*
X224746033Y-66035366D01*
X224773623Y-66007776D01*
X224788555Y-65971728D01*
X224790476Y-65952219D01*
X224790476Y-65285552D01*
X225019048Y-65285552D01*
X225019048Y-65618885D01*
X225019383Y-65622287D01*
X225019166Y-65623746D01*
X225020245Y-65631043D01*
X225020969Y-65638394D01*
X225021533Y-65639757D01*
X225022034Y-65643139D01*
X225069653Y-65833614D01*
X225076248Y-65852075D01*
X225080673Y-65858047D01*
X225083519Y-65864918D01*
X225095956Y-65880071D01*
X225191194Y-65975311D01*
X225198862Y-65981604D01*
X225200593Y-65983600D01*
X225203600Y-65985493D01*
X225206347Y-65987747D01*
X225208787Y-65988757D01*
X225217184Y-65994043D01*
X225312421Y-66041662D01*
X225330730Y-66048668D01*
X225334313Y-66048922D01*
X225337634Y-66050298D01*
X225357143Y-66052219D01*
X225547619Y-66052219D01*
X225567128Y-66050298D01*
X225570448Y-66048922D01*
X225574032Y-66048668D01*
X225592340Y-66041662D01*
X225687578Y-65994043D01*
X225695973Y-65988758D01*
X225698415Y-65987747D01*
X225701162Y-65985491D01*
X225704168Y-65983600D01*
X225705898Y-65981605D01*
X225713568Y-65975310D01*
X225808806Y-65880071D01*
X225821243Y-65864918D01*
X225824088Y-65858047D01*
X225828514Y-65852075D01*
X225835109Y-65833615D01*
X225882728Y-65643139D01*
X225883228Y-65639757D01*
X225883793Y-65638394D01*
X225884516Y-65631043D01*
X225885596Y-65623746D01*
X225885378Y-65622287D01*
X225885714Y-65618885D01*
X225885714Y-65285552D01*
X225885378Y-65282149D01*
X225885596Y-65280691D01*
X225884516Y-65273393D01*
X225883793Y-65266043D01*
X225883228Y-65264679D01*
X225882728Y-65261298D01*
X225835109Y-65070822D01*
X225828514Y-65052362D01*
X225824087Y-65046387D01*
X225821242Y-65039519D01*
X225808806Y-65024365D01*
X225736660Y-64952219D01*
X226114286Y-64952219D01*
X226114286Y-65952219D01*
X226116207Y-65971728D01*
X226131139Y-66007776D01*
X226158729Y-66035366D01*
X226194777Y-66050298D01*
X226214286Y-66052219D01*
X226690476Y-66052219D01*
X226709985Y-66050298D01*
X226746033Y-66035366D01*
X226773623Y-66007776D01*
X226788555Y-65971728D01*
X226788555Y-65932710D01*
X226773623Y-65896662D01*
X226746033Y-65869072D01*
X226709985Y-65854140D01*
X226690476Y-65852219D01*
X226314286Y-65852219D01*
X226314286Y-64952219D01*
X226923810Y-64952219D01*
X226923810Y-65952219D01*
X226925731Y-65971728D01*
X226940663Y-66007776D01*
X226968253Y-66035366D01*
X227004301Y-66050298D01*
X227023810Y-66052219D01*
X227261905Y-66052219D01*
X227271778Y-66051246D01*
X227274412Y-66051434D01*
X227277875Y-66050646D01*
X227281414Y-66050298D01*
X227283856Y-66049286D01*
X227293528Y-66047087D01*
X227436384Y-65999468D01*
X227454285Y-65991477D01*
X227457000Y-65989122D01*
X227460320Y-65987747D01*
X227475473Y-65975310D01*
X227570711Y-65880071D01*
X227577003Y-65872404D01*
X227579000Y-65870673D01*
X227580893Y-65867665D01*
X227583148Y-65864918D01*
X227584159Y-65862476D01*
X227589443Y-65854082D01*
X227637062Y-65758845D01*
X227637608Y-65757416D01*
X227638038Y-65756837D01*
X227640959Y-65748660D01*
X227644068Y-65740536D01*
X227644119Y-65739815D01*
X227644633Y-65738377D01*
X227692252Y-65547901D01*
X227692752Y-65544519D01*
X227693317Y-65543156D01*
X227694040Y-65535805D01*
X227695120Y-65528508D01*
X227694902Y-65527049D01*
X227695238Y-65523647D01*
X227695238Y-65380790D01*
X227694902Y-65377387D01*
X227695120Y-65375929D01*
X227694040Y-65368631D01*
X227693317Y-65361281D01*
X227692752Y-65359917D01*
X227692252Y-65356536D01*
X227644633Y-65166060D01*
X227644119Y-65164621D01*
X227644068Y-65163901D01*
X227640959Y-65155776D01*
X227638038Y-65147600D01*
X227637608Y-65147020D01*
X227637062Y-65145592D01*
X227589443Y-65050355D01*
X227584156Y-65041956D01*
X227583147Y-65039519D01*
X227580895Y-65036775D01*
X227579000Y-65033764D01*
X227577002Y-65032031D01*
X227570711Y-65024365D01*
X227475473Y-64929127D01*
X227460319Y-64916691D01*
X227457000Y-64915316D01*
X227454285Y-64912961D01*
X227436384Y-64904970D01*
X227293528Y-64857351D01*
X227283856Y-64855151D01*
X227281414Y-64854140D01*
X227277875Y-64853791D01*
X227274412Y-64853004D01*
X227271778Y-64853191D01*
X227261905Y-64852219D01*
X227023810Y-64852219D01*
X227004301Y-64854140D01*
X226968253Y-64869072D01*
X226940663Y-64896662D01*
X226925731Y-64932710D01*
X226923810Y-64952219D01*
X226314286Y-64952219D01*
X226312365Y-64932710D01*
X226297433Y-64896662D01*
X226269843Y-64869072D01*
X226233795Y-64854140D01*
X226194777Y-64854140D01*
X226158729Y-64869072D01*
X226131139Y-64896662D01*
X226116207Y-64932710D01*
X226114286Y-64952219D01*
X225736660Y-64952219D01*
X225713568Y-64929127D01*
X225705897Y-64922832D01*
X225704168Y-64920838D01*
X225701160Y-64918944D01*
X225698414Y-64916691D01*
X225695974Y-64915680D01*
X225687578Y-64910395D01*
X225592340Y-64862776D01*
X225574032Y-64855770D01*
X225570448Y-64855515D01*
X225567128Y-64854140D01*
X225547619Y-64852219D01*
X225357143Y-64852219D01*
X225337634Y-64854140D01*
X225334313Y-64855515D01*
X225330730Y-64855770D01*
X225312421Y-64862776D01*
X225217184Y-64910395D01*
X225208785Y-64915681D01*
X225206348Y-64916691D01*
X225203604Y-64918942D01*
X225200593Y-64920838D01*
X225198860Y-64922835D01*
X225191194Y-64929127D01*
X225095956Y-65024365D01*
X225083520Y-65039519D01*
X225080674Y-65046387D01*
X225076248Y-65052362D01*
X225069653Y-65070823D01*
X225022034Y-65261298D01*
X225021533Y-65264679D01*
X225020969Y-65266043D01*
X225020245Y-65273393D01*
X225019166Y-65280691D01*
X225019383Y-65282149D01*
X225019048Y-65285552D01*
X224790476Y-65285552D01*
X224790476Y-64952219D01*
X224788555Y-64932710D01*
X224773623Y-64896662D01*
X224746033Y-64869072D01*
X224709985Y-64854140D01*
X224670967Y-64854140D01*
X224634919Y-64869072D01*
X224607329Y-64896662D01*
X224592397Y-64932710D01*
X224590476Y-64952219D01*
X224590476Y-65328409D01*
X224219048Y-65328409D01*
X224219048Y-64952219D01*
X224217127Y-64932710D01*
X224202195Y-64896662D01*
X224174605Y-64869072D01*
X224138557Y-64854140D01*
X224099539Y-64854140D01*
X224063491Y-64869072D01*
X224035901Y-64896662D01*
X224020969Y-64932710D01*
X224019048Y-64952219D01*
X223907937Y-64952219D01*
X223907937Y-64741108D01*
X227806349Y-64741108D01*
X227806349Y-66163330D01*
G37*
G36*
X229328238Y-93163330D02*
G01*
X223860318Y-93163330D01*
X223860318Y-92142695D01*
X223971429Y-92142695D01*
X223971429Y-92237933D01*
X223973350Y-92257442D01*
X223974725Y-92260762D01*
X223974980Y-92264346D01*
X223981986Y-92282654D01*
X224029605Y-92377892D01*
X224034890Y-92386288D01*
X224035901Y-92388728D01*
X224038154Y-92391474D01*
X224040048Y-92394482D01*
X224042042Y-92396211D01*
X224048337Y-92403882D01*
X224095956Y-92451500D01*
X224103622Y-92457792D01*
X224105355Y-92459790D01*
X224108363Y-92461683D01*
X224111109Y-92463937D01*
X224113549Y-92464947D01*
X224121946Y-92470233D01*
X224217183Y-92517852D01*
X224218611Y-92518398D01*
X224219191Y-92518828D01*
X224227367Y-92521749D01*
X224235492Y-92524858D01*
X224236212Y-92524909D01*
X224237651Y-92525423D01*
X224417476Y-92570379D01*
X224488383Y-92605833D01*
X224513052Y-92630501D01*
X224542857Y-92690111D01*
X224542857Y-92738135D01*
X224513052Y-92797743D01*
X224488383Y-92822413D01*
X224428774Y-92852219D01*
X224230512Y-92852219D01*
X224103052Y-92809732D01*
X224083936Y-92805385D01*
X224045016Y-92808151D01*
X224010117Y-92825601D01*
X223984552Y-92855077D01*
X223972214Y-92892093D01*
X223974980Y-92931013D01*
X223992430Y-92965912D01*
X224021906Y-92991477D01*
X224039806Y-92999468D01*
X224182663Y-93047087D01*
X224192335Y-93049286D01*
X224194777Y-93050298D01*
X224198314Y-93050646D01*
X224201778Y-93051434D01*
X224204412Y-93051246D01*
X224214286Y-93052219D01*
X224452381Y-93052219D01*
X224471890Y-93050298D01*
X224475210Y-93048922D01*
X224478794Y-93048668D01*
X224497102Y-93041662D01*
X224592340Y-92994043D01*
X224600735Y-92988758D01*
X224603177Y-92987747D01*
X224605924Y-92985491D01*
X224608930Y-92983600D01*
X224610660Y-92981605D01*
X224618330Y-92975310D01*
X224665949Y-92927690D01*
X224672241Y-92920023D01*
X224674238Y-92918292D01*
X224676131Y-92915284D01*
X224678386Y-92912537D01*
X224679397Y-92910095D01*
X224684681Y-92901701D01*
X224732300Y-92806464D01*
X224739306Y-92788155D01*
X224739560Y-92784571D01*
X224740936Y-92781251D01*
X224742857Y-92761742D01*
X224742857Y-92666504D01*
X224740936Y-92646995D01*
X224739560Y-92643674D01*
X224739306Y-92640091D01*
X224732300Y-92621782D01*
X224684681Y-92526545D01*
X224679395Y-92518148D01*
X224678385Y-92515708D01*
X224676131Y-92512962D01*
X224674238Y-92509954D01*
X224672240Y-92508221D01*
X224665948Y-92500555D01*
X224618330Y-92452936D01*
X224610659Y-92446641D01*
X224608930Y-92444647D01*
X224605922Y-92442753D01*
X224603176Y-92440500D01*
X224600736Y-92439489D01*
X224592340Y-92434204D01*
X224497102Y-92386585D01*
X224495675Y-92386039D01*
X224495095Y-92385609D01*
X224486918Y-92382687D01*
X224478794Y-92379579D01*
X224478071Y-92379527D01*
X224476634Y-92379014D01*
X224296809Y-92334057D01*
X224225902Y-92298604D01*
X224201234Y-92273935D01*
X224171429Y-92214325D01*
X224171429Y-92166302D01*
X224201234Y-92106692D01*
X224225902Y-92082023D01*
X224285512Y-92052219D01*
X224483773Y-92052219D01*
X224611234Y-92094706D01*
X224630349Y-92099053D01*
X224669269Y-92096287D01*
X224704168Y-92078837D01*
X224729733Y-92049361D01*
X224742072Y-92012345D01*
X224739305Y-91973425D01*
X224728702Y-91952219D01*
X224971429Y-91952219D01*
X224971429Y-92952219D01*
X224973350Y-92971728D01*
X224988282Y-93007776D01*
X225015872Y-93035366D01*
X225051920Y-93050298D01*
X225071429Y-93052219D01*
X225547619Y-93052219D01*
X225567128Y-93050298D01*
X225603176Y-93035366D01*
X225630766Y-93007776D01*
X225645698Y-92971728D01*
X225645698Y-92932710D01*
X225630766Y-92896662D01*
X225603176Y-92869072D01*
X225567128Y-92854140D01*
X225547619Y-92852219D01*
X225171429Y-92852219D01*
X225171429Y-92528409D01*
X225404762Y-92528409D01*
X225424271Y-92526488D01*
X225460319Y-92511556D01*
X225487909Y-92483966D01*
X225502841Y-92447918D01*
X225502841Y-92408900D01*
X225487909Y-92372852D01*
X225460319Y-92345262D01*
X225424271Y-92330330D01*
X225404762Y-92328409D01*
X225171429Y-92328409D01*
X225171429Y-92052219D01*
X225547619Y-92052219D01*
X225567128Y-92050298D01*
X225603176Y-92035366D01*
X225630766Y-92007776D01*
X225645698Y-91971728D01*
X225645698Y-91952219D01*
X225876191Y-91952219D01*
X225876191Y-92952219D01*
X225878112Y-92971728D01*
X225893044Y-93007776D01*
X225920634Y-93035366D01*
X225956682Y-93050298D01*
X225976191Y-93052219D01*
X226452381Y-93052219D01*
X226471890Y-93050298D01*
X226507938Y-93035366D01*
X226535528Y-93007776D01*
X226550460Y-92971728D01*
X226550460Y-92932710D01*
X226535528Y-92896662D01*
X226507938Y-92869072D01*
X226471890Y-92854140D01*
X226452381Y-92852219D01*
X226076191Y-92852219D01*
X226076191Y-91952219D01*
X226685715Y-91952219D01*
X226685715Y-92952219D01*
X226687636Y-92971728D01*
X226702568Y-93007776D01*
X226730158Y-93035366D01*
X226766206Y-93050298D01*
X226785715Y-93052219D01*
X227261905Y-93052219D01*
X227281414Y-93050298D01*
X227317462Y-93035366D01*
X227345052Y-93007776D01*
X227359984Y-92971728D01*
X227359984Y-92932710D01*
X227345052Y-92896662D01*
X227317462Y-92869072D01*
X227281414Y-92854140D01*
X227261905Y-92852219D01*
X226885715Y-92852219D01*
X226885715Y-92528409D01*
X227119048Y-92528409D01*
X227138557Y-92526488D01*
X227174605Y-92511556D01*
X227202195Y-92483966D01*
X227217127Y-92447918D01*
X227217127Y-92408900D01*
X227205483Y-92380790D01*
X227542858Y-92380790D01*
X227542858Y-92523647D01*
X227543193Y-92527049D01*
X227542976Y-92528508D01*
X227544055Y-92535805D01*
X227544779Y-92543156D01*
X227545343Y-92544519D01*
X227545844Y-92547901D01*
X227593463Y-92738376D01*
X227593976Y-92739813D01*
X227594028Y-92740536D01*
X227597136Y-92748660D01*
X227600058Y-92756837D01*
X227600488Y-92757417D01*
X227601034Y-92758844D01*
X227648653Y-92854082D01*
X227653935Y-92862474D01*
X227654948Y-92864918D01*
X227657204Y-92867667D01*
X227659096Y-92870672D01*
X227661090Y-92872401D01*
X227667385Y-92880071D01*
X227762623Y-92975311D01*
X227777776Y-92987747D01*
X227781095Y-92989122D01*
X227783811Y-92991477D01*
X227801711Y-92999468D01*
X227944568Y-93047087D01*
X227954240Y-93049286D01*
X227956682Y-93050298D01*
X227960219Y-93050646D01*
X227963683Y-93051434D01*
X227966317Y-93051246D01*
X227976191Y-93052219D01*
X228071429Y-93052219D01*
X228081302Y-93051246D01*
X228083936Y-93051434D01*
X228087399Y-93050646D01*
X228090938Y-93050298D01*
X228093380Y-93049286D01*
X228103052Y-93047087D01*
X228245908Y-92999468D01*
X228263809Y-92991477D01*
X228266524Y-92989122D01*
X228269844Y-92987747D01*
X228284997Y-92975310D01*
X228332616Y-92927690D01*
X228345053Y-92912537D01*
X228359984Y-92876488D01*
X228359983Y-92837470D01*
X228345052Y-92801422D01*
X228317461Y-92773832D01*
X228281413Y-92758901D01*
X228242395Y-92758902D01*
X228206347Y-92773833D01*
X228191193Y-92786270D01*
X228160266Y-92817197D01*
X228055202Y-92852219D01*
X227992417Y-92852219D01*
X227887352Y-92817197D01*
X227820282Y-92750127D01*
X227784828Y-92679218D01*
X227742858Y-92511337D01*
X227742858Y-92393100D01*
X227784828Y-92225218D01*
X227820281Y-92154312D01*
X227887353Y-92087240D01*
X227992417Y-92052219D01*
X228055202Y-92052219D01*
X228160267Y-92087240D01*
X228191194Y-92118167D01*
X228206347Y-92130604D01*
X228242396Y-92145535D01*
X228281414Y-92145535D01*
X228317462Y-92130604D01*
X228345052Y-92103014D01*
X228359983Y-92066966D01*
X228359983Y-92027948D01*
X228345052Y-91991899D01*
X228332615Y-91976746D01*
X228288580Y-91932710D01*
X228449541Y-91932710D01*
X228449541Y-91971728D01*
X228464473Y-92007776D01*
X228492063Y-92035366D01*
X228528111Y-92050298D01*
X228547620Y-92052219D01*
X228733334Y-92052219D01*
X228733334Y-92952219D01*
X228735255Y-92971728D01*
X228750187Y-93007776D01*
X228777777Y-93035366D01*
X228813825Y-93050298D01*
X228852843Y-93050298D01*
X228888891Y-93035366D01*
X228916481Y-93007776D01*
X228931413Y-92971728D01*
X228933334Y-92952219D01*
X228933334Y-92052219D01*
X229119048Y-92052219D01*
X229138557Y-92050298D01*
X229174605Y-92035366D01*
X229202195Y-92007776D01*
X229217127Y-91971728D01*
X229217127Y-91932710D01*
X229202195Y-91896662D01*
X229174605Y-91869072D01*
X229138557Y-91854140D01*
X229119048Y-91852219D01*
X228547620Y-91852219D01*
X228528111Y-91854140D01*
X228492063Y-91869072D01*
X228464473Y-91896662D01*
X228449541Y-91932710D01*
X228288580Y-91932710D01*
X228284997Y-91929127D01*
X228269843Y-91916691D01*
X228266524Y-91915316D01*
X228263809Y-91912961D01*
X228245908Y-91904970D01*
X228103052Y-91857351D01*
X228093380Y-91855151D01*
X228090938Y-91854140D01*
X228087399Y-91853791D01*
X228083936Y-91853004D01*
X228081302Y-91853191D01*
X228071429Y-91852219D01*
X227976191Y-91852219D01*
X227966317Y-91853191D01*
X227963683Y-91853004D01*
X227960219Y-91853791D01*
X227956682Y-91854140D01*
X227954240Y-91855151D01*
X227944568Y-91857351D01*
X227801711Y-91904970D01*
X227783811Y-91912961D01*
X227781095Y-91915316D01*
X227777777Y-91916691D01*
X227762623Y-91929127D01*
X227667385Y-92024365D01*
X227661090Y-92032035D01*
X227659096Y-92033765D01*
X227657202Y-92036772D01*
X227654949Y-92039519D01*
X227653938Y-92041958D01*
X227648653Y-92050355D01*
X227601034Y-92145593D01*
X227600488Y-92147019D01*
X227600058Y-92147600D01*
X227597136Y-92155776D01*
X227594028Y-92163901D01*
X227593976Y-92164623D01*
X227593463Y-92166061D01*
X227545844Y-92356536D01*
X227545343Y-92359917D01*
X227544779Y-92361281D01*
X227544055Y-92368631D01*
X227542976Y-92375929D01*
X227543193Y-92377387D01*
X227542858Y-92380790D01*
X227205483Y-92380790D01*
X227202195Y-92372852D01*
X227174605Y-92345262D01*
X227138557Y-92330330D01*
X227119048Y-92328409D01*
X226885715Y-92328409D01*
X226885715Y-92052219D01*
X227261905Y-92052219D01*
X227281414Y-92050298D01*
X227317462Y-92035366D01*
X227345052Y-92007776D01*
X227359984Y-91971728D01*
X227359984Y-91932710D01*
X227345052Y-91896662D01*
X227317462Y-91869072D01*
X227281414Y-91854140D01*
X227261905Y-91852219D01*
X226785715Y-91852219D01*
X226766206Y-91854140D01*
X226730158Y-91869072D01*
X226702568Y-91896662D01*
X226687636Y-91932710D01*
X226685715Y-91952219D01*
X226076191Y-91952219D01*
X226074270Y-91932710D01*
X226059338Y-91896662D01*
X226031748Y-91869072D01*
X225995700Y-91854140D01*
X225956682Y-91854140D01*
X225920634Y-91869072D01*
X225893044Y-91896662D01*
X225878112Y-91932710D01*
X225876191Y-91952219D01*
X225645698Y-91952219D01*
X225645698Y-91932710D01*
X225630766Y-91896662D01*
X225603176Y-91869072D01*
X225567128Y-91854140D01*
X225547619Y-91852219D01*
X225071429Y-91852219D01*
X225051920Y-91854140D01*
X225015872Y-91869072D01*
X224988282Y-91896662D01*
X224973350Y-91932710D01*
X224971429Y-91952219D01*
X224728702Y-91952219D01*
X224721856Y-91938526D01*
X224692380Y-91912961D01*
X224674479Y-91904970D01*
X224531623Y-91857351D01*
X224521951Y-91855151D01*
X224519509Y-91854140D01*
X224515970Y-91853791D01*
X224512507Y-91853004D01*
X224509873Y-91853191D01*
X224500000Y-91852219D01*
X224261905Y-91852219D01*
X224242396Y-91854140D01*
X224239075Y-91855515D01*
X224235492Y-91855770D01*
X224217183Y-91862776D01*
X224121946Y-91910395D01*
X224113549Y-91915680D01*
X224111109Y-91916691D01*
X224108363Y-91918944D01*
X224105355Y-91920838D01*
X224103622Y-91922835D01*
X224095956Y-91929128D01*
X224048337Y-91976746D01*
X224042042Y-91984416D01*
X224040048Y-91986146D01*
X224038154Y-91989153D01*
X224035901Y-91991900D01*
X224034890Y-91994339D01*
X224029605Y-92002736D01*
X223981986Y-92097974D01*
X223974980Y-92116282D01*
X223974725Y-92119865D01*
X223973350Y-92123186D01*
X223971429Y-92142695D01*
X223860318Y-92142695D01*
X223860318Y-91741108D01*
X229328238Y-91741108D01*
X229328238Y-93163330D01*
G37*
D10*
X203909580Y-82804166D02*
X203957200Y-82851785D01*
X203957200Y-82851785D02*
X204004819Y-82994642D01*
X204004819Y-82994642D02*
X204004819Y-83089880D01*
X204004819Y-83089880D02*
X203957200Y-83232737D01*
X203957200Y-83232737D02*
X203861961Y-83327975D01*
X203861961Y-83327975D02*
X203766723Y-83375594D01*
X203766723Y-83375594D02*
X203576247Y-83423213D01*
X203576247Y-83423213D02*
X203433390Y-83423213D01*
X203433390Y-83423213D02*
X203242914Y-83375594D01*
X203242914Y-83375594D02*
X203147676Y-83327975D01*
X203147676Y-83327975D02*
X203052438Y-83232737D01*
X203052438Y-83232737D02*
X203004819Y-83089880D01*
X203004819Y-83089880D02*
X203004819Y-82994642D01*
X203004819Y-82994642D02*
X203052438Y-82851785D01*
X203052438Y-82851785D02*
X203100057Y-82804166D01*
X204004819Y-81851785D02*
X204004819Y-82423213D01*
X204004819Y-82137499D02*
X203004819Y-82137499D01*
X203004819Y-82137499D02*
X203147676Y-82232737D01*
X203147676Y-82232737D02*
X203242914Y-82327975D01*
X203242914Y-82327975D02*
X203290533Y-82423213D01*
D11*
G36*
X225508621Y-74082024D02*
G01*
X225533290Y-74106692D01*
X225563095Y-74166302D01*
X225563095Y-74261945D01*
X225533290Y-74321554D01*
X225508621Y-74346222D01*
X225449012Y-74376028D01*
X225191667Y-74376028D01*
X225191667Y-74052219D01*
X225449012Y-74052219D01*
X225508621Y-74082024D01*
G37*
G36*
X225874206Y-75163330D02*
G01*
X223832937Y-75163330D01*
X223832937Y-73952219D01*
X223944048Y-73952219D01*
X223944048Y-74761742D01*
X223945969Y-74781251D01*
X223947344Y-74784571D01*
X223947599Y-74788155D01*
X223954605Y-74806463D01*
X224002224Y-74901701D01*
X224007507Y-74910093D01*
X224008519Y-74912537D01*
X224010775Y-74915286D01*
X224012667Y-74918291D01*
X224014661Y-74920020D01*
X224020956Y-74927690D01*
X224068574Y-74975310D01*
X224076242Y-74981603D01*
X224077974Y-74983600D01*
X224080982Y-74985493D01*
X224083728Y-74987747D01*
X224086168Y-74988757D01*
X224094565Y-74994043D01*
X224189802Y-75041662D01*
X224208111Y-75048668D01*
X224211694Y-75048922D01*
X224215015Y-75050298D01*
X224234524Y-75052219D01*
X224425000Y-75052219D01*
X224444509Y-75050298D01*
X224447829Y-75048922D01*
X224451413Y-75048668D01*
X224469721Y-75041662D01*
X224564959Y-74994043D01*
X224573354Y-74988758D01*
X224575796Y-74987747D01*
X224578543Y-74985491D01*
X224581549Y-74983600D01*
X224583279Y-74981605D01*
X224590949Y-74975310D01*
X224638568Y-74927690D01*
X224644860Y-74920023D01*
X224646857Y-74918292D01*
X224648750Y-74915284D01*
X224651005Y-74912537D01*
X224652016Y-74910095D01*
X224657300Y-74901701D01*
X224704919Y-74806464D01*
X224711925Y-74788155D01*
X224712179Y-74784571D01*
X224713555Y-74781251D01*
X224715476Y-74761742D01*
X224715476Y-73952219D01*
X224991667Y-73952219D01*
X224991667Y-74952219D01*
X224993588Y-74971728D01*
X225008520Y-75007776D01*
X225036110Y-75035366D01*
X225072158Y-75050298D01*
X225111176Y-75050298D01*
X225147224Y-75035366D01*
X225174814Y-75007776D01*
X225189746Y-74971728D01*
X225191667Y-74952219D01*
X225191667Y-74576028D01*
X225472619Y-74576028D01*
X225492128Y-74574107D01*
X225495448Y-74572731D01*
X225499032Y-74572477D01*
X225517340Y-74565471D01*
X225612578Y-74517852D01*
X225620974Y-74512566D01*
X225623414Y-74511556D01*
X225626160Y-74509302D01*
X225629168Y-74507409D01*
X225630897Y-74505414D01*
X225638568Y-74499120D01*
X225686186Y-74451501D01*
X225692478Y-74443834D01*
X225694476Y-74442102D01*
X225696369Y-74439093D01*
X225698623Y-74436348D01*
X225699633Y-74433907D01*
X225704919Y-74425511D01*
X225752538Y-74330274D01*
X225759544Y-74311965D01*
X225759798Y-74308381D01*
X225761174Y-74305061D01*
X225763095Y-74285552D01*
X225763095Y-74142695D01*
X225761174Y-74123186D01*
X225759798Y-74119865D01*
X225759544Y-74116282D01*
X225752538Y-74097973D01*
X225704919Y-74002736D01*
X225699633Y-73994339D01*
X225698623Y-73991899D01*
X225696369Y-73989153D01*
X225694476Y-73986145D01*
X225692478Y-73984412D01*
X225686186Y-73976746D01*
X225638568Y-73929127D01*
X225630897Y-73922832D01*
X225629168Y-73920838D01*
X225626160Y-73918944D01*
X225623414Y-73916691D01*
X225620974Y-73915680D01*
X225612578Y-73910395D01*
X225517340Y-73862776D01*
X225499032Y-73855770D01*
X225495448Y-73855515D01*
X225492128Y-73854140D01*
X225472619Y-73852219D01*
X225091667Y-73852219D01*
X225072158Y-73854140D01*
X225036110Y-73869072D01*
X225008520Y-73896662D01*
X224993588Y-73932710D01*
X224991667Y-73952219D01*
X224715476Y-73952219D01*
X224713555Y-73932710D01*
X224698623Y-73896662D01*
X224671033Y-73869072D01*
X224634985Y-73854140D01*
X224595967Y-73854140D01*
X224559919Y-73869072D01*
X224532329Y-73896662D01*
X224517397Y-73932710D01*
X224515476Y-73952219D01*
X224515476Y-74738135D01*
X224485671Y-74797743D01*
X224461002Y-74822413D01*
X224401393Y-74852219D01*
X224258131Y-74852219D01*
X224198521Y-74822414D01*
X224173854Y-74797746D01*
X224144048Y-74738134D01*
X224144048Y-73952219D01*
X224142127Y-73932710D01*
X224127195Y-73896662D01*
X224099605Y-73869072D01*
X224063557Y-73854140D01*
X224024539Y-73854140D01*
X223988491Y-73869072D01*
X223960901Y-73896662D01*
X223945969Y-73932710D01*
X223944048Y-73952219D01*
X223832937Y-73952219D01*
X223832937Y-73741108D01*
X225874206Y-73741108D01*
X225874206Y-75163330D01*
G37*
G36*
X224445980Y-83087240D02*
G01*
X224513053Y-83154313D01*
X224548505Y-83225218D01*
X224590476Y-83393099D01*
X224590476Y-83511337D01*
X224548505Y-83679218D01*
X224513052Y-83750124D01*
X224445981Y-83817197D01*
X224340916Y-83852219D01*
X224219048Y-83852219D01*
X224219048Y-83052219D01*
X224340916Y-83052219D01*
X224445980Y-83087240D01*
G37*
G36*
X225536001Y-83082023D02*
G01*
X225600180Y-83146202D01*
X225638095Y-83297861D01*
X225638095Y-83606575D01*
X225600179Y-83758235D01*
X225536003Y-83822413D01*
X225476393Y-83852219D01*
X225333131Y-83852219D01*
X225273521Y-83822414D01*
X225209344Y-83758236D01*
X225171429Y-83606575D01*
X225171429Y-83297862D01*
X225209344Y-83146202D01*
X225273523Y-83082023D01*
X225333131Y-83052219D01*
X225476393Y-83052219D01*
X225536001Y-83082023D01*
G37*
G36*
X228092063Y-84163330D02*
G01*
X223907937Y-84163330D01*
X223907937Y-82952219D01*
X224019048Y-82952219D01*
X224019048Y-83952219D01*
X224020969Y-83971728D01*
X224035901Y-84007776D01*
X224063491Y-84035366D01*
X224099539Y-84050298D01*
X224119048Y-84052219D01*
X224357143Y-84052219D01*
X224367016Y-84051246D01*
X224369650Y-84051434D01*
X224373113Y-84050646D01*
X224376652Y-84050298D01*
X224379094Y-84049286D01*
X224388766Y-84047087D01*
X224531622Y-83999468D01*
X224549523Y-83991477D01*
X224552238Y-83989122D01*
X224555558Y-83987747D01*
X224570711Y-83975310D01*
X224665949Y-83880071D01*
X224672241Y-83872404D01*
X224674238Y-83870673D01*
X224676131Y-83867665D01*
X224678386Y-83864918D01*
X224679397Y-83862476D01*
X224684681Y-83854082D01*
X224732300Y-83758845D01*
X224732846Y-83757416D01*
X224733276Y-83756837D01*
X224736197Y-83748660D01*
X224739306Y-83740536D01*
X224739357Y-83739815D01*
X224739871Y-83738377D01*
X224787490Y-83547901D01*
X224787990Y-83544519D01*
X224788555Y-83543156D01*
X224789278Y-83535805D01*
X224790358Y-83528508D01*
X224790140Y-83527049D01*
X224790476Y-83523647D01*
X224790476Y-83380790D01*
X224790140Y-83377387D01*
X224790358Y-83375929D01*
X224789278Y-83368631D01*
X224788555Y-83361281D01*
X224787990Y-83359917D01*
X224787490Y-83356536D01*
X224769744Y-83285552D01*
X224971429Y-83285552D01*
X224971429Y-83618885D01*
X224971764Y-83622287D01*
X224971547Y-83623746D01*
X224972626Y-83631043D01*
X224973350Y-83638394D01*
X224973914Y-83639757D01*
X224974415Y-83643139D01*
X225022034Y-83833614D01*
X225028629Y-83852075D01*
X225033054Y-83858047D01*
X225035900Y-83864918D01*
X225048337Y-83880071D01*
X225143575Y-83975311D01*
X225151243Y-83981604D01*
X225152974Y-83983600D01*
X225155981Y-83985493D01*
X225158728Y-83987747D01*
X225161168Y-83988757D01*
X225169565Y-83994043D01*
X225264802Y-84041662D01*
X225283111Y-84048668D01*
X225286694Y-84048922D01*
X225290015Y-84050298D01*
X225309524Y-84052219D01*
X225500000Y-84052219D01*
X225519509Y-84050298D01*
X225522829Y-84048922D01*
X225526413Y-84048668D01*
X225544721Y-84041662D01*
X225639959Y-83994043D01*
X225648354Y-83988758D01*
X225650796Y-83987747D01*
X225653543Y-83985491D01*
X225656549Y-83983600D01*
X225658279Y-83981605D01*
X225665949Y-83975310D01*
X225761187Y-83880071D01*
X225773624Y-83864918D01*
X225776469Y-83858047D01*
X225780895Y-83852075D01*
X225787490Y-83833615D01*
X225835109Y-83643139D01*
X225835609Y-83639757D01*
X225836174Y-83638394D01*
X225836897Y-83631043D01*
X225837977Y-83623746D01*
X225837759Y-83622287D01*
X225838095Y-83618885D01*
X225838095Y-83285552D01*
X225837759Y-83282149D01*
X225837977Y-83280691D01*
X225836897Y-83273393D01*
X225836174Y-83266043D01*
X225835609Y-83264679D01*
X225835109Y-83261298D01*
X225787490Y-83070822D01*
X225780895Y-83052362D01*
X225776468Y-83046387D01*
X225773623Y-83039519D01*
X225761187Y-83024365D01*
X225692780Y-82955958D01*
X225971498Y-82955958D01*
X225974148Y-82975381D01*
X226212243Y-83975381D01*
X226214551Y-83982078D01*
X226214870Y-83984476D01*
X226216124Y-83986643D01*
X226218631Y-83993915D01*
X226227146Y-84005681D01*
X226234419Y-84018244D01*
X226238496Y-84021364D01*
X226241506Y-84025524D01*
X226253868Y-84033131D01*
X226265402Y-84041960D01*
X226270365Y-84043283D01*
X226274736Y-84045973D01*
X226289070Y-84048271D01*
X226303103Y-84052013D01*
X226308191Y-84051336D01*
X226313263Y-84052150D01*
X226327397Y-84048784D01*
X226341781Y-84046873D01*
X226346221Y-84044302D01*
X226351220Y-84043112D01*
X226362986Y-84034596D01*
X226375549Y-84027324D01*
X226378669Y-84023246D01*
X226382829Y-84020237D01*
X226390436Y-84007874D01*
X226399265Y-83996341D01*
X226401964Y-83989140D01*
X226403278Y-83987007D01*
X226403661Y-83984616D01*
X226406148Y-83977985D01*
X226500000Y-83626038D01*
X226593853Y-83977986D01*
X226596338Y-83984615D01*
X226596722Y-83987007D01*
X226598035Y-83989141D01*
X226600735Y-83996341D01*
X226609563Y-84007874D01*
X226617171Y-84020237D01*
X226621330Y-84023246D01*
X226624451Y-84027324D01*
X226637015Y-84034598D01*
X226648780Y-84043112D01*
X226653775Y-84044301D01*
X226658219Y-84046874D01*
X226672608Y-84048785D01*
X226686737Y-84052150D01*
X226691808Y-84051336D01*
X226696897Y-84052013D01*
X226710929Y-84048271D01*
X226725264Y-84045973D01*
X226729634Y-84043283D01*
X226734598Y-84041960D01*
X226746131Y-84033131D01*
X226758494Y-84025524D01*
X226761503Y-84021364D01*
X226765581Y-84018244D01*
X226772856Y-84005677D01*
X226781369Y-83993915D01*
X226783873Y-83986649D01*
X226785131Y-83984477D01*
X226785450Y-83982073D01*
X226787757Y-83975381D01*
X227025853Y-82975381D01*
X227028503Y-82955958D01*
X227027904Y-82952219D01*
X227209524Y-82952219D01*
X227209524Y-83952219D01*
X227211445Y-83971728D01*
X227226377Y-84007776D01*
X227253967Y-84035366D01*
X227290015Y-84050298D01*
X227329033Y-84050298D01*
X227365081Y-84035366D01*
X227392671Y-84007776D01*
X227407603Y-83971728D01*
X227409524Y-83952219D01*
X227409524Y-83328775D01*
X227794128Y-84001833D01*
X227797046Y-84005943D01*
X227797805Y-84007776D01*
X227799671Y-84009642D01*
X227805475Y-84017818D01*
X227815991Y-84025962D01*
X227825395Y-84035366D01*
X227831282Y-84037804D01*
X227836324Y-84041709D01*
X227849156Y-84045208D01*
X227861443Y-84050298D01*
X227867819Y-84050298D01*
X227873968Y-84051975D01*
X227887161Y-84050298D01*
X227900461Y-84050298D01*
X227906349Y-84047858D01*
X227912674Y-84047055D01*
X227924223Y-84040454D01*
X227936509Y-84035366D01*
X227941016Y-84030858D01*
X227946551Y-84027696D01*
X227954695Y-84017179D01*
X227964099Y-84007776D01*
X227966537Y-84001888D01*
X227970442Y-83996847D01*
X227973941Y-83984014D01*
X227979031Y-83971728D01*
X227980013Y-83961750D01*
X227980708Y-83959204D01*
X227980457Y-83957236D01*
X227980952Y-83952219D01*
X227980952Y-82952219D01*
X227979031Y-82932710D01*
X227964099Y-82896662D01*
X227936509Y-82869072D01*
X227900461Y-82854140D01*
X227861443Y-82854140D01*
X227825395Y-82869072D01*
X227797805Y-82896662D01*
X227782873Y-82932710D01*
X227780952Y-82952219D01*
X227780952Y-83575662D01*
X227396348Y-82902605D01*
X227393429Y-82898494D01*
X227392671Y-82896662D01*
X227390804Y-82894795D01*
X227385001Y-82886620D01*
X227374486Y-82878477D01*
X227365081Y-82869072D01*
X227359190Y-82866632D01*
X227354152Y-82862730D01*
X227341323Y-82859231D01*
X227329033Y-82854140D01*
X227322658Y-82854140D01*
X227316509Y-82852463D01*
X227303316Y-82854140D01*
X227290015Y-82854140D01*
X227284126Y-82856579D01*
X227277802Y-82857383D01*
X227266252Y-82863983D01*
X227253967Y-82869072D01*
X227249459Y-82873579D01*
X227243925Y-82876742D01*
X227235782Y-82887256D01*
X227226377Y-82896662D01*
X227223937Y-82902552D01*
X227220035Y-82907591D01*
X227216536Y-82920419D01*
X227211445Y-82932710D01*
X227210462Y-82942687D01*
X227209768Y-82945234D01*
X227210018Y-82947201D01*
X227209524Y-82952219D01*
X227027904Y-82952219D01*
X227022326Y-82917432D01*
X227001877Y-82884201D01*
X226970268Y-82861326D01*
X226932311Y-82852289D01*
X226893784Y-82858465D01*
X226860554Y-82878914D01*
X226837679Y-82910523D01*
X226831291Y-82929057D01*
X226684987Y-83543530D01*
X226596624Y-83212167D01*
X226594910Y-83207596D01*
X226594655Y-83205675D01*
X226593334Y-83203393D01*
X226589741Y-83193811D01*
X226581716Y-83183328D01*
X226575105Y-83171908D01*
X226569961Y-83167971D01*
X226566025Y-83162828D01*
X226554607Y-83156218D01*
X226544122Y-83148192D01*
X226537858Y-83146521D01*
X226532257Y-83143279D01*
X226519179Y-83141541D01*
X226506421Y-83138139D01*
X226499999Y-83138992D01*
X226493579Y-83138139D01*
X226480825Y-83141539D01*
X226467743Y-83143278D01*
X226462138Y-83146522D01*
X226455878Y-83148192D01*
X226445394Y-83156216D01*
X226433975Y-83162828D01*
X226430038Y-83167971D01*
X226424895Y-83171908D01*
X226418285Y-83183325D01*
X226410259Y-83193811D01*
X226406663Y-83203399D01*
X226405346Y-83205676D01*
X226405091Y-83207594D01*
X226403377Y-83212166D01*
X226315012Y-83543530D01*
X226168710Y-82929057D01*
X226162322Y-82910523D01*
X226139447Y-82878914D01*
X226106217Y-82858465D01*
X226067690Y-82852288D01*
X226029733Y-82861326D01*
X225998124Y-82884201D01*
X225977675Y-82917431D01*
X225971498Y-82955958D01*
X225692780Y-82955958D01*
X225665949Y-82929127D01*
X225658278Y-82922832D01*
X225656549Y-82920838D01*
X225653541Y-82918944D01*
X225650795Y-82916691D01*
X225648355Y-82915680D01*
X225639959Y-82910395D01*
X225544721Y-82862776D01*
X225526413Y-82855770D01*
X225522829Y-82855515D01*
X225519509Y-82854140D01*
X225500000Y-82852219D01*
X225309524Y-82852219D01*
X225290015Y-82854140D01*
X225286694Y-82855515D01*
X225283111Y-82855770D01*
X225264802Y-82862776D01*
X225169565Y-82910395D01*
X225161166Y-82915681D01*
X225158729Y-82916691D01*
X225155985Y-82918942D01*
X225152974Y-82920838D01*
X225151241Y-82922835D01*
X225143575Y-82929127D01*
X225048337Y-83024365D01*
X225035901Y-83039519D01*
X225033055Y-83046387D01*
X225028629Y-83052362D01*
X225022034Y-83070823D01*
X224974415Y-83261298D01*
X224973914Y-83264679D01*
X224973350Y-83266043D01*
X224972626Y-83273393D01*
X224971547Y-83280691D01*
X224971764Y-83282149D01*
X224971429Y-83285552D01*
X224769744Y-83285552D01*
X224739871Y-83166060D01*
X224739357Y-83164621D01*
X224739306Y-83163901D01*
X224736197Y-83155776D01*
X224733276Y-83147600D01*
X224732846Y-83147020D01*
X224732300Y-83145592D01*
X224684681Y-83050355D01*
X224679394Y-83041956D01*
X224678385Y-83039519D01*
X224676133Y-83036775D01*
X224674238Y-83033764D01*
X224672240Y-83032031D01*
X224665949Y-83024365D01*
X224570711Y-82929127D01*
X224555557Y-82916691D01*
X224552238Y-82915316D01*
X224549523Y-82912961D01*
X224531622Y-82904970D01*
X224388766Y-82857351D01*
X224379094Y-82855151D01*
X224376652Y-82854140D01*
X224373113Y-82853791D01*
X224369650Y-82853004D01*
X224367016Y-82853191D01*
X224357143Y-82852219D01*
X224119048Y-82852219D01*
X224099539Y-82854140D01*
X224063491Y-82869072D01*
X224035901Y-82896662D01*
X224020969Y-82932710D01*
X224019048Y-82952219D01*
X223907937Y-82952219D01*
X223907937Y-82741108D01*
X228092063Y-82741108D01*
X228092063Y-84163330D01*
G37*
D10*
X210583333Y-65454819D02*
X210250000Y-64978628D01*
X210011905Y-65454819D02*
X210011905Y-64454819D01*
X210011905Y-64454819D02*
X210392857Y-64454819D01*
X210392857Y-64454819D02*
X210488095Y-64502438D01*
X210488095Y-64502438D02*
X210535714Y-64550057D01*
X210535714Y-64550057D02*
X210583333Y-64645295D01*
X210583333Y-64645295D02*
X210583333Y-64788152D01*
X210583333Y-64788152D02*
X210535714Y-64883390D01*
X210535714Y-64883390D02*
X210488095Y-64931009D01*
X210488095Y-64931009D02*
X210392857Y-64978628D01*
X210392857Y-64978628D02*
X210011905Y-64978628D01*
X211535714Y-65454819D02*
X210964286Y-65454819D01*
X211250000Y-65454819D02*
X211250000Y-64454819D01*
X211250000Y-64454819D02*
X211154762Y-64597676D01*
X211154762Y-64597676D02*
X211059524Y-64692914D01*
X211059524Y-64692914D02*
X210964286Y-64740533D01*
X210633333Y-83454819D02*
X210300000Y-82978628D01*
X210061905Y-83454819D02*
X210061905Y-82454819D01*
X210061905Y-82454819D02*
X210442857Y-82454819D01*
X210442857Y-82454819D02*
X210538095Y-82502438D01*
X210538095Y-82502438D02*
X210585714Y-82550057D01*
X210585714Y-82550057D02*
X210633333Y-82645295D01*
X210633333Y-82645295D02*
X210633333Y-82788152D01*
X210633333Y-82788152D02*
X210585714Y-82883390D01*
X210585714Y-82883390D02*
X210538095Y-82931009D01*
X210538095Y-82931009D02*
X210442857Y-82978628D01*
X210442857Y-82978628D02*
X210061905Y-82978628D01*
X210966667Y-82454819D02*
X211585714Y-82454819D01*
X211585714Y-82454819D02*
X211252381Y-82835771D01*
X211252381Y-82835771D02*
X211395238Y-82835771D01*
X211395238Y-82835771D02*
X211490476Y-82883390D01*
X211490476Y-82883390D02*
X211538095Y-82931009D01*
X211538095Y-82931009D02*
X211585714Y-83026247D01*
X211585714Y-83026247D02*
X211585714Y-83264342D01*
X211585714Y-83264342D02*
X211538095Y-83359580D01*
X211538095Y-83359580D02*
X211490476Y-83407200D01*
X211490476Y-83407200D02*
X211395238Y-83454819D01*
X211395238Y-83454819D02*
X211109524Y-83454819D01*
X211109524Y-83454819D02*
X211014286Y-83407200D01*
X211014286Y-83407200D02*
X210966667Y-83359580D01*
X210633333Y-74454819D02*
X210300000Y-73978628D01*
X210061905Y-74454819D02*
X210061905Y-73454819D01*
X210061905Y-73454819D02*
X210442857Y-73454819D01*
X210442857Y-73454819D02*
X210538095Y-73502438D01*
X210538095Y-73502438D02*
X210585714Y-73550057D01*
X210585714Y-73550057D02*
X210633333Y-73645295D01*
X210633333Y-73645295D02*
X210633333Y-73788152D01*
X210633333Y-73788152D02*
X210585714Y-73883390D01*
X210585714Y-73883390D02*
X210538095Y-73931009D01*
X210538095Y-73931009D02*
X210442857Y-73978628D01*
X210442857Y-73978628D02*
X210061905Y-73978628D01*
X211014286Y-73550057D02*
X211061905Y-73502438D01*
X211061905Y-73502438D02*
X211157143Y-73454819D01*
X211157143Y-73454819D02*
X211395238Y-73454819D01*
X211395238Y-73454819D02*
X211490476Y-73502438D01*
X211490476Y-73502438D02*
X211538095Y-73550057D01*
X211538095Y-73550057D02*
X211585714Y-73645295D01*
X211585714Y-73645295D02*
X211585714Y-73740533D01*
X211585714Y-73740533D02*
X211538095Y-73883390D01*
X211538095Y-73883390D02*
X210966667Y-74454819D01*
X210966667Y-74454819D02*
X211585714Y-74454819D01*
X199033333Y-84954819D02*
X198700000Y-84478628D01*
X198461905Y-84954819D02*
X198461905Y-83954819D01*
X198461905Y-83954819D02*
X198842857Y-83954819D01*
X198842857Y-83954819D02*
X198938095Y-84002438D01*
X198938095Y-84002438D02*
X198985714Y-84050057D01*
X198985714Y-84050057D02*
X199033333Y-84145295D01*
X199033333Y-84145295D02*
X199033333Y-84288152D01*
X199033333Y-84288152D02*
X198985714Y-84383390D01*
X198985714Y-84383390D02*
X198938095Y-84431009D01*
X198938095Y-84431009D02*
X198842857Y-84478628D01*
X198842857Y-84478628D02*
X198461905Y-84478628D01*
X199366667Y-83954819D02*
X200033333Y-83954819D01*
X200033333Y-83954819D02*
X199604762Y-84954819D01*
X198933333Y-87454819D02*
X198600000Y-86978628D01*
X198361905Y-87454819D02*
X198361905Y-86454819D01*
X198361905Y-86454819D02*
X198742857Y-86454819D01*
X198742857Y-86454819D02*
X198838095Y-86502438D01*
X198838095Y-86502438D02*
X198885714Y-86550057D01*
X198885714Y-86550057D02*
X198933333Y-86645295D01*
X198933333Y-86645295D02*
X198933333Y-86788152D01*
X198933333Y-86788152D02*
X198885714Y-86883390D01*
X198885714Y-86883390D02*
X198838095Y-86931009D01*
X198838095Y-86931009D02*
X198742857Y-86978628D01*
X198742857Y-86978628D02*
X198361905Y-86978628D01*
X199504762Y-86883390D02*
X199409524Y-86835771D01*
X199409524Y-86835771D02*
X199361905Y-86788152D01*
X199361905Y-86788152D02*
X199314286Y-86692914D01*
X199314286Y-86692914D02*
X199314286Y-86645295D01*
X199314286Y-86645295D02*
X199361905Y-86550057D01*
X199361905Y-86550057D02*
X199409524Y-86502438D01*
X199409524Y-86502438D02*
X199504762Y-86454819D01*
X199504762Y-86454819D02*
X199695238Y-86454819D01*
X199695238Y-86454819D02*
X199790476Y-86502438D01*
X199790476Y-86502438D02*
X199838095Y-86550057D01*
X199838095Y-86550057D02*
X199885714Y-86645295D01*
X199885714Y-86645295D02*
X199885714Y-86692914D01*
X199885714Y-86692914D02*
X199838095Y-86788152D01*
X199838095Y-86788152D02*
X199790476Y-86835771D01*
X199790476Y-86835771D02*
X199695238Y-86883390D01*
X199695238Y-86883390D02*
X199504762Y-86883390D01*
X199504762Y-86883390D02*
X199409524Y-86931009D01*
X199409524Y-86931009D02*
X199361905Y-86978628D01*
X199361905Y-86978628D02*
X199314286Y-87073866D01*
X199314286Y-87073866D02*
X199314286Y-87264342D01*
X199314286Y-87264342D02*
X199361905Y-87359580D01*
X199361905Y-87359580D02*
X199409524Y-87407200D01*
X199409524Y-87407200D02*
X199504762Y-87454819D01*
X199504762Y-87454819D02*
X199695238Y-87454819D01*
X199695238Y-87454819D02*
X199790476Y-87407200D01*
X199790476Y-87407200D02*
X199838095Y-87359580D01*
X199838095Y-87359580D02*
X199885714Y-87264342D01*
X199885714Y-87264342D02*
X199885714Y-87073866D01*
X199885714Y-87073866D02*
X199838095Y-86978628D01*
X199838095Y-86978628D02*
X199790476Y-86931009D01*
X199790476Y-86931009D02*
X199695238Y-86883390D01*
X198359580Y-89866666D02*
X198407200Y-89914285D01*
X198407200Y-89914285D02*
X198454819Y-90057142D01*
X198454819Y-90057142D02*
X198454819Y-90152380D01*
X198454819Y-90152380D02*
X198407200Y-90295237D01*
X198407200Y-90295237D02*
X198311961Y-90390475D01*
X198311961Y-90390475D02*
X198216723Y-90438094D01*
X198216723Y-90438094D02*
X198026247Y-90485713D01*
X198026247Y-90485713D02*
X197883390Y-90485713D01*
X197883390Y-90485713D02*
X197692914Y-90438094D01*
X197692914Y-90438094D02*
X197597676Y-90390475D01*
X197597676Y-90390475D02*
X197502438Y-90295237D01*
X197502438Y-90295237D02*
X197454819Y-90152380D01*
X197454819Y-90152380D02*
X197454819Y-90057142D01*
X197454819Y-90057142D02*
X197502438Y-89914285D01*
X197502438Y-89914285D02*
X197550057Y-89866666D01*
X197454819Y-89533332D02*
X197454819Y-88914285D01*
X197454819Y-88914285D02*
X197835771Y-89247618D01*
X197835771Y-89247618D02*
X197835771Y-89104761D01*
X197835771Y-89104761D02*
X197883390Y-89009523D01*
X197883390Y-89009523D02*
X197931009Y-88961904D01*
X197931009Y-88961904D02*
X198026247Y-88914285D01*
X198026247Y-88914285D02*
X198264342Y-88914285D01*
X198264342Y-88914285D02*
X198359580Y-88961904D01*
X198359580Y-88961904D02*
X198407200Y-89009523D01*
X198407200Y-89009523D02*
X198454819Y-89104761D01*
X198454819Y-89104761D02*
X198454819Y-89390475D01*
X198454819Y-89390475D02*
X198407200Y-89485713D01*
X198407200Y-89485713D02*
X198359580Y-89533332D01*
X193654819Y-82866666D02*
X193178628Y-83199999D01*
X193654819Y-83438094D02*
X192654819Y-83438094D01*
X192654819Y-83438094D02*
X192654819Y-83057142D01*
X192654819Y-83057142D02*
X192702438Y-82961904D01*
X192702438Y-82961904D02*
X192750057Y-82914285D01*
X192750057Y-82914285D02*
X192845295Y-82866666D01*
X192845295Y-82866666D02*
X192988152Y-82866666D01*
X192988152Y-82866666D02*
X193083390Y-82914285D01*
X193083390Y-82914285D02*
X193131009Y-82961904D01*
X193131009Y-82961904D02*
X193178628Y-83057142D01*
X193178628Y-83057142D02*
X193178628Y-83438094D01*
X192654819Y-82009523D02*
X192654819Y-82199999D01*
X192654819Y-82199999D02*
X192702438Y-82295237D01*
X192702438Y-82295237D02*
X192750057Y-82342856D01*
X192750057Y-82342856D02*
X192892914Y-82438094D01*
X192892914Y-82438094D02*
X193083390Y-82485713D01*
X193083390Y-82485713D02*
X193464342Y-82485713D01*
X193464342Y-82485713D02*
X193559580Y-82438094D01*
X193559580Y-82438094D02*
X193607200Y-82390475D01*
X193607200Y-82390475D02*
X193654819Y-82295237D01*
X193654819Y-82295237D02*
X193654819Y-82104761D01*
X193654819Y-82104761D02*
X193607200Y-82009523D01*
X193607200Y-82009523D02*
X193559580Y-81961904D01*
X193559580Y-81961904D02*
X193464342Y-81914285D01*
X193464342Y-81914285D02*
X193226247Y-81914285D01*
X193226247Y-81914285D02*
X193131009Y-81961904D01*
X193131009Y-81961904D02*
X193083390Y-82009523D01*
X193083390Y-82009523D02*
X193035771Y-82104761D01*
X193035771Y-82104761D02*
X193035771Y-82295237D01*
X193035771Y-82295237D02*
X193083390Y-82390475D01*
X193083390Y-82390475D02*
X193131009Y-82438094D01*
X193131009Y-82438094D02*
X193226247Y-82485713D01*
X189161905Y-78454819D02*
X189161905Y-77454819D01*
X189161905Y-77454819D02*
X189400000Y-77454819D01*
X189400000Y-77454819D02*
X189542857Y-77502438D01*
X189542857Y-77502438D02*
X189638095Y-77597676D01*
X189638095Y-77597676D02*
X189685714Y-77692914D01*
X189685714Y-77692914D02*
X189733333Y-77883390D01*
X189733333Y-77883390D02*
X189733333Y-78026247D01*
X189733333Y-78026247D02*
X189685714Y-78216723D01*
X189685714Y-78216723D02*
X189638095Y-78311961D01*
X189638095Y-78311961D02*
X189542857Y-78407200D01*
X189542857Y-78407200D02*
X189400000Y-78454819D01*
X189400000Y-78454819D02*
X189161905Y-78454819D01*
X190685714Y-78454819D02*
X190114286Y-78454819D01*
X190400000Y-78454819D02*
X190400000Y-77454819D01*
X190400000Y-77454819D02*
X190304762Y-77597676D01*
X190304762Y-77597676D02*
X190209524Y-77692914D01*
X190209524Y-77692914D02*
X190114286Y-77740533D01*
X206359580Y-90166666D02*
X206407200Y-90214285D01*
X206407200Y-90214285D02*
X206454819Y-90357142D01*
X206454819Y-90357142D02*
X206454819Y-90452380D01*
X206454819Y-90452380D02*
X206407200Y-90595237D01*
X206407200Y-90595237D02*
X206311961Y-90690475D01*
X206311961Y-90690475D02*
X206216723Y-90738094D01*
X206216723Y-90738094D02*
X206026247Y-90785713D01*
X206026247Y-90785713D02*
X205883390Y-90785713D01*
X205883390Y-90785713D02*
X205692914Y-90738094D01*
X205692914Y-90738094D02*
X205597676Y-90690475D01*
X205597676Y-90690475D02*
X205502438Y-90595237D01*
X205502438Y-90595237D02*
X205454819Y-90452380D01*
X205454819Y-90452380D02*
X205454819Y-90357142D01*
X205454819Y-90357142D02*
X205502438Y-90214285D01*
X205502438Y-90214285D02*
X205550057Y-90166666D01*
X205550057Y-89785713D02*
X205502438Y-89738094D01*
X205502438Y-89738094D02*
X205454819Y-89642856D01*
X205454819Y-89642856D02*
X205454819Y-89404761D01*
X205454819Y-89404761D02*
X205502438Y-89309523D01*
X205502438Y-89309523D02*
X205550057Y-89261904D01*
X205550057Y-89261904D02*
X205645295Y-89214285D01*
X205645295Y-89214285D02*
X205740533Y-89214285D01*
X205740533Y-89214285D02*
X205883390Y-89261904D01*
X205883390Y-89261904D02*
X206454819Y-89833332D01*
X206454819Y-89833332D02*
X206454819Y-89214285D01*
X188857142Y-80854819D02*
X188523809Y-80378628D01*
X188285714Y-80854819D02*
X188285714Y-79854819D01*
X188285714Y-79854819D02*
X188666666Y-79854819D01*
X188666666Y-79854819D02*
X188761904Y-79902438D01*
X188761904Y-79902438D02*
X188809523Y-79950057D01*
X188809523Y-79950057D02*
X188857142Y-80045295D01*
X188857142Y-80045295D02*
X188857142Y-80188152D01*
X188857142Y-80188152D02*
X188809523Y-80283390D01*
X188809523Y-80283390D02*
X188761904Y-80331009D01*
X188761904Y-80331009D02*
X188666666Y-80378628D01*
X188666666Y-80378628D02*
X188285714Y-80378628D01*
X189809523Y-80854819D02*
X189238095Y-80854819D01*
X189523809Y-80854819D02*
X189523809Y-79854819D01*
X189523809Y-79854819D02*
X189428571Y-79997676D01*
X189428571Y-79997676D02*
X189333333Y-80092914D01*
X189333333Y-80092914D02*
X189238095Y-80140533D01*
X190428571Y-79854819D02*
X190523809Y-79854819D01*
X190523809Y-79854819D02*
X190619047Y-79902438D01*
X190619047Y-79902438D02*
X190666666Y-79950057D01*
X190666666Y-79950057D02*
X190714285Y-80045295D01*
X190714285Y-80045295D02*
X190761904Y-80235771D01*
X190761904Y-80235771D02*
X190761904Y-80473866D01*
X190761904Y-80473866D02*
X190714285Y-80664342D01*
X190714285Y-80664342D02*
X190666666Y-80759580D01*
X190666666Y-80759580D02*
X190619047Y-80807200D01*
X190619047Y-80807200D02*
X190523809Y-80854819D01*
X190523809Y-80854819D02*
X190428571Y-80854819D01*
X190428571Y-80854819D02*
X190333333Y-80807200D01*
X190333333Y-80807200D02*
X190285714Y-80759580D01*
X190285714Y-80759580D02*
X190238095Y-80664342D01*
X190238095Y-80664342D02*
X190190476Y-80473866D01*
X190190476Y-80473866D02*
X190190476Y-80235771D01*
X190190476Y-80235771D02*
X190238095Y-80045295D01*
X190238095Y-80045295D02*
X190285714Y-79950057D01*
X190285714Y-79950057D02*
X190333333Y-79902438D01*
X190333333Y-79902438D02*
X190428571Y-79854819D01*
D12*
%TO.C,J3*%
X200100000Y-67420000D02*
X192420000Y-67420000D01*
X200100000Y-67420000D02*
X200100000Y-70080000D01*
X192420000Y-67420000D02*
X192420000Y-70080000D01*
X202700000Y-68750000D02*
X202700000Y-70080000D01*
X202700000Y-70080000D02*
X201370000Y-70080000D01*
X200100000Y-70080000D02*
X192420000Y-70080000D01*
%TO.C,U1*%
X198740000Y-75490000D02*
X204260000Y-75490000D01*
X198740000Y-75760000D02*
X198740000Y-75490000D01*
X198740000Y-81010000D02*
X198740000Y-80740000D01*
X204260000Y-75490000D02*
X204260000Y-75760000D01*
X204260000Y-80740000D02*
X204260000Y-81010000D01*
X204260000Y-81010000D02*
X198740000Y-81010000D01*
X205430000Y-81220000D02*
X204750000Y-81220000D01*
X205090000Y-80750000D01*
X205430000Y-81220000D01*
G36*
X205430000Y-81220000D02*
G01*
X204750000Y-81220000D01*
X205090000Y-80750000D01*
X205430000Y-81220000D01*
G37*
%TO.C,R4*%
X210572936Y-89765000D02*
X211027064Y-89765000D01*
X210572936Y-91235000D02*
X211027064Y-91235000D01*
%TO.C,TP5*%
X204450000Y-61750000D02*
G75*
G02*
X202550000Y-61750000I-950000J0D01*
G01*
X202550000Y-61750000D02*
G75*
G02*
X204450000Y-61750000I950000J0D01*
G01*
%TO.C,R9*%
X205265000Y-85272936D02*
X205265000Y-85727064D01*
X206735000Y-85272936D02*
X206735000Y-85727064D01*
%TO.C,R5*%
X200265000Y-85727064D02*
X200265000Y-85272936D01*
X201735000Y-85727064D02*
X201735000Y-85272936D01*
%TO.C,HOLD*%
X214550000Y-64650000D02*
X214550000Y-66150000D01*
X215800000Y-68650000D02*
X220300000Y-68650000D01*
X220300000Y-62150000D02*
X215800000Y-62150000D01*
X221550000Y-66150000D02*
X221550000Y-64650000D01*
%TO.C,J1*%
X203140000Y-96590000D02*
X203520000Y-96590000D01*
X203140000Y-98360000D02*
X203140000Y-96590000D01*
X203140000Y-100900000D02*
X203140000Y-100640000D01*
X210760000Y-96590000D02*
X210380000Y-96590000D01*
X210760000Y-96590000D02*
X210760000Y-98360000D01*
X210760000Y-100640000D02*
X210760000Y-100900000D01*
%TO.C,TP6*%
X204450000Y-64800000D02*
G75*
G02*
X202550000Y-64800000I-950000J0D01*
G01*
X202550000Y-64800000D02*
G75*
G02*
X204450000Y-64800000I950000J0D01*
G01*
%TO.C,SELECT*%
X214400000Y-92000000D02*
X214400000Y-93500000D01*
X215650000Y-96000000D02*
X220150000Y-96000000D01*
X220150000Y-89500000D02*
X215650000Y-89500000D01*
X221400000Y-93500000D02*
X221400000Y-92000000D01*
%TO.C,C1*%
X202765000Y-85798752D02*
X202765000Y-85276248D01*
X204235000Y-85798752D02*
X204235000Y-85276248D01*
%TO.C,UP*%
X214500000Y-73766667D02*
X214500000Y-75266667D01*
X215750000Y-77766667D02*
X220250000Y-77766667D01*
X220250000Y-71266667D02*
X215750000Y-71266667D01*
X221500000Y-75266667D02*
X221500000Y-73766667D01*
%TO.C,TP1*%
X198450000Y-61750000D02*
G75*
G02*
X196550000Y-61750000I-950000J0D01*
G01*
X196550000Y-61750000D02*
G75*
G02*
X198450000Y-61750000I950000J0D01*
G01*
%TO.C,DOWN*%
X214300000Y-82883333D02*
X214300000Y-84383333D01*
X215550000Y-86883333D02*
X220050000Y-86883333D01*
X220050000Y-80383333D02*
X215550000Y-80383333D01*
X221300000Y-84383333D02*
X221300000Y-82883333D01*
%TO.C,TP2*%
X198450000Y-64800000D02*
G75*
G02*
X196550000Y-64800000I-950000J0D01*
G01*
X196550000Y-64800000D02*
G75*
G02*
X198450000Y-64800000I950000J0D01*
G01*
%TO.C,R1*%
X210522936Y-62515000D02*
X210977064Y-62515000D01*
X210522936Y-63985000D02*
X210977064Y-63985000D01*
%TO.C,R3*%
X210572936Y-81985000D02*
X211027064Y-81985000D01*
X210572936Y-80515000D02*
X211027064Y-80515000D01*
%TO.C,J2*%
X183815000Y-84760000D02*
X183815000Y-86640000D01*
X185785000Y-83590000D02*
X188285000Y-83590000D01*
X185785000Y-87810000D02*
X188285000Y-87810000D01*
X188285000Y-83590000D02*
X188285000Y-84640000D01*
X188285000Y-84640000D02*
X189275000Y-84640000D01*
X188285000Y-87810000D02*
X188285000Y-86760000D01*
%TO.C,TP4*%
X201500000Y-64800000D02*
G75*
G02*
X199600000Y-64800000I-950000J0D01*
G01*
X199600000Y-64800000D02*
G75*
G02*
X201500000Y-64800000I950000J0D01*
G01*
%TO.C,R2*%
X210572936Y-71515000D02*
X211027064Y-71515000D01*
X210572936Y-72985000D02*
X211027064Y-72985000D01*
%TO.C,R7*%
X196272936Y-83615000D02*
X196727064Y-83615000D01*
X196272936Y-85085000D02*
X196727064Y-85085000D01*
%TO.C,R8*%
X196727064Y-86265000D02*
X196272936Y-86265000D01*
X196727064Y-87735000D02*
X196272936Y-87735000D01*
%TO.C,SW5*%
X184500000Y-73300000D02*
X184500000Y-79700000D01*
X184500000Y-79700000D02*
X185700000Y-79700000D01*
X185700000Y-73300000D02*
X184500000Y-73300000D01*
X187300000Y-79700000D02*
X188500000Y-79700000D01*
X188500000Y-73300000D02*
X187300000Y-73300000D01*
X188500000Y-79700000D02*
X188500000Y-73300000D01*
%TO.C,C3*%
X197265000Y-92276248D02*
X197265000Y-92798752D01*
X198735000Y-92276248D02*
X198735000Y-92798752D01*
D11*
%TO.C,IC1*%
X200425000Y-91261000D02*
X201675000Y-91261000D01*
X202025000Y-91327000D02*
X202575000Y-91327000D01*
X202025000Y-94223000D02*
X202025000Y-91327000D01*
X202575000Y-91327000D02*
X202575000Y-94223000D01*
X202575000Y-94223000D02*
X202025000Y-94223000D01*
D12*
%TO.C,R6*%
X192265000Y-85727064D02*
X192265000Y-85272936D01*
X193735000Y-85727064D02*
X193735000Y-85272936D01*
%TO.C,D1*%
X190890000Y-77040000D02*
X190890000Y-78960000D01*
X190890000Y-78960000D02*
X193750000Y-78960000D01*
X193750000Y-77040000D02*
X190890000Y-77040000D01*
%TO.C,C2*%
X205215000Y-92563748D02*
X205215000Y-93086252D01*
X206685000Y-92563748D02*
X206685000Y-93086252D01*
%TO.C,R10*%
X192522936Y-79765000D02*
X192977064Y-79765000D01*
X192522936Y-81235000D02*
X192977064Y-81235000D01*
%TO.C,TP3*%
X201500000Y-61750000D02*
G75*
G02*
X199600000Y-61750000I-950000J0D01*
G01*
X199600000Y-61750000D02*
G75*
G02*
X201500000Y-61750000I950000J0D01*
G01*
%TD*%
M02*
