%TF.GenerationSoftware,KiCad,Pcbnew,9.0.7-9.0.7~ubuntu22.04.1*%
%TF.CreationDate,2026-01-26T15:11:08+05:30*%
%TF.ProjectId,ATTINY_85_OSCILLOSCOPE,41545449-4e59-45f3-9835-5f4f5343494c,rev?*%
%TF.SameCoordinates,Original*%
%TF.FileFunction,Paste,Top*%
%TF.FilePolarity,Positive*%
%FSLAX46Y46*%
G04 Gerber Fmt 4.6, Leading zero omitted, Abs format (unit mm)*
G04 Created by KiCad (PCBNEW 9.0.7-9.0.7~ubuntu22.04.1) date 2026-01-26 15:11:08*
%MOMM*%
%LPD*%
G01*
G04 APERTURE LIST*
G04 Aperture macros list*
%AMRoundRect*
0 Rectangle with rounded corners*
0 $1 Rounding radius*
0 $2 $3 $4 $5 $6 $7 $8 $9 X,Y pos of 4 corners*
0 Add a 4 corners polygon primitive as box body*
4,1,4,$2,$3,$4,$5,$6,$7,$8,$9,$2,$3,0*
0 Add four circle primitives for the rounded corners*
1,1,$1+$1,$2,$3*
1,1,$1+$1,$4,$5*
1,1,$1+$1,$6,$7*
1,1,$1+$1,$8,$9*
0 Add four rect primitives between the rounded corners*
20,1,$1+$1,$2,$3,$4,$5,0*
20,1,$1+$1,$4,$5,$6,$7,0*
20,1,$1+$1,$6,$7,$8,$9,0*
20,1,$1+$1,$8,$9,$2,$3,0*%
G04 Aperture macros list end*
%ADD10RoundRect,0.162500X0.650000X0.162500X-0.650000X0.162500X-0.650000X-0.162500X0.650000X-0.162500X0*%
%ADD11RoundRect,0.250000X-0.350000X-0.450000X0.350000X-0.450000X0.350000X0.450000X-0.350000X0.450000X0*%
%ADD12RoundRect,0.250000X-0.450000X0.350000X-0.450000X-0.350000X0.450000X-0.350000X0.450000X0.350000X0*%
%ADD13RoundRect,0.250000X0.450000X-0.350000X0.450000X0.350000X-0.450000X0.350000X-0.450000X-0.350000X0*%
%ADD14R,0.450000X1.380000*%
%ADD15R,1.650000X1.300000*%
%ADD16R,1.425000X1.550000*%
%ADD17R,1.800000X1.900000*%
%ADD18R,1.000000X1.900000*%
%ADD19RoundRect,0.250000X0.475000X-0.337500X0.475000X0.337500X-0.475000X0.337500X-0.475000X-0.337500X0*%
%ADD20RoundRect,0.150000X-0.625000X0.150000X-0.625000X-0.150000X0.625000X-0.150000X0.625000X0.150000X0*%
%ADD21RoundRect,0.250000X-0.650000X0.350000X-0.650000X-0.350000X0.650000X-0.350000X0.650000X0.350000X0*%
%ADD22RoundRect,0.250000X0.350000X0.450000X-0.350000X0.450000X-0.350000X-0.450000X0.350000X-0.450000X0*%
%ADD23R,1.000000X1.250000*%
%ADD24RoundRect,0.250000X-0.475000X0.337500X-0.475000X-0.337500X0.475000X-0.337500X0.475000X0.337500X0*%
%ADD25R,1.250000X0.650000*%
%ADD26RoundRect,0.250000X-0.325000X-0.450000X0.325000X-0.450000X0.325000X0.450000X-0.325000X0.450000X0*%
G04 APERTURE END LIST*
D10*
%TO.C,U1*%
X205087500Y-80155000D03*
X205087500Y-78885000D03*
X205087500Y-77615000D03*
X205087500Y-76345000D03*
X197912500Y-76345000D03*
X197912500Y-77615000D03*
X197912500Y-78885000D03*
X197912500Y-80155000D03*
%TD*%
D11*
%TO.C,R4*%
X209800000Y-90500000D03*
X211800000Y-90500000D03*
%TD*%
D12*
%TO.C,R9*%
X206000000Y-84500000D03*
X206000000Y-86500000D03*
%TD*%
D13*
%TO.C,R5*%
X201000000Y-86500000D03*
X201000000Y-84500000D03*
%TD*%
D14*
%TO.C,J1*%
X205650000Y-96840000D03*
X206300000Y-96840000D03*
X206950000Y-96840000D03*
X207600000Y-96840000D03*
X208250000Y-96840000D03*
D15*
X203575000Y-99500000D03*
D16*
X204462500Y-96925000D03*
D17*
X205800000Y-99500000D03*
D18*
X208500000Y-99500000D03*
D16*
X209437500Y-96925000D03*
D15*
X210325000Y-99500000D03*
%TD*%
D19*
%TO.C,C1*%
X203500000Y-86575000D03*
X203500000Y-84500000D03*
%TD*%
D11*
%TO.C,R1*%
X209750000Y-63250000D03*
X211750000Y-63250000D03*
%TD*%
%TO.C,R3*%
X211800000Y-81250000D03*
X209800000Y-81250000D03*
%TD*%
D20*
%TO.C,J2*%
X188500000Y-85200000D03*
X188500000Y-86200000D03*
D21*
X184625000Y-83900000D03*
X184625000Y-87500000D03*
%TD*%
D11*
%TO.C,R2*%
X209800000Y-72250000D03*
X211800000Y-72250000D03*
%TD*%
%TO.C,R7*%
X195500000Y-84350000D03*
X197500000Y-84350000D03*
%TD*%
D22*
%TO.C,R8*%
X197500000Y-87000000D03*
X195500000Y-87000000D03*
%TD*%
D23*
%TO.C,SW5*%
X186500000Y-72625000D03*
X186500000Y-80375000D03*
%TD*%
D24*
%TO.C,C3*%
X198000000Y-91500000D03*
X198000000Y-93575000D03*
%TD*%
D25*
%TO.C,IC1*%
X201050000Y-91835000D03*
X201050000Y-92775000D03*
X201050000Y-93715000D03*
X203550000Y-93715000D03*
X203550000Y-91835000D03*
%TD*%
D13*
%TO.C,R6*%
X193000000Y-86500000D03*
X193000000Y-84500000D03*
%TD*%
D26*
%TO.C,D1*%
X191725000Y-78000000D03*
X193775000Y-78000000D03*
%TD*%
D24*
%TO.C,C2*%
X205950000Y-91787500D03*
X205950000Y-93862500D03*
%TD*%
D11*
%TO.C,R10*%
X191750000Y-80500000D03*
X193750000Y-80500000D03*
%TD*%
M02*
